<svg width="26" height="25" viewBox="0 0 26 25" fill="none" xmlns="http://www.w3.org/2000/svg">
<path d="M12.925 24.4553C19.3454 24.4553 24.55 19.2506 24.55 12.8303C24.55 6.41003 19.3454 1.20534 12.925 1.20534C6.50474 1.20534 1.30005 6.41003 1.30005 12.8303C1.30005 19.2506 6.50474 24.4553 12.925 24.4553Z" fill="#615EFF" stroke="#615EFF"/>
<path fill-rule="evenodd" clip-rule="evenodd" d="M18.5846 8.47073C18.8384 8.72459 18.8384 9.13613 18.5846 9.38999L11.4346 16.5399C11.1808 16.7938 10.7692 16.7938 10.5154 16.5399L7.26535 13.29C7.01149 13.0361 7.01149 12.6246 7.26535 12.3707C7.51921 12.1169 7.93075 12.1169 8.18461 12.3707L10.975 15.1611L17.6653 8.47073C17.9192 8.21687 18.3307 8.21687 18.5846 8.47073Z" fill="white" stroke="white" stroke-linecap="round" stroke-linejoin="round"/>
</svg>
