<svg width="26" height="25" viewBox="0 0 26 25" fill="none" xmlns="http://www.w3.org/2000/svg">
<path d="M12.925 24.3721C19.3453 24.3721 24.55 19.1674 24.55 12.7471C24.55 6.32675 19.3453 1.12206 12.925 1.12206C6.50468 1.12206 1.29999 6.32675 1.29999 12.7471C1.29999 19.1674 6.50468 24.3721 12.925 24.3721Z" fill="#D0CCFF" stroke="#D0CCFF"/>
<path fill-rule="evenodd" clip-rule="evenodd" d="M18.5846 8.38745C18.8385 8.64131 18.8385 9.05285 18.5846 9.30671L11.4346 16.4567C11.1808 16.7105 10.7692 16.7105 10.5154 16.4567L7.26538 13.2067C7.01152 12.9529 7.01152 12.5413 7.26538 12.2875C7.51924 12.0336 7.93078 12.0336 8.18464 12.2875L10.975 15.0778L17.6654 8.38745C17.9192 8.13359 18.3308 8.13359 18.5846 8.38745Z" fill="#38374B" stroke="#38374B" stroke-linecap="round" stroke-linejoin="round"/>
</svg>
