<svg width="18" height="19" viewBox="0 0 18 19" fill="none" xmlns="http://www.w3.org/2000/svg">
<g clip-path="url(#clip0_468_206)">
<path fill-rule="evenodd" clip-rule="evenodd" d="M6.75 1.57205C5.92157 1.57205 5.25 2.24362 5.25 3.07205H4.5C3.90326 3.07205 3.33097 3.3091 2.90901 3.73106C2.48705 4.15302 2.25 4.72531 2.25 5.32205V15.8221C2.25 16.4188 2.48705 16.9911 2.90901 17.413C3.33097 17.835 3.90326 18.0721 4.5 18.0721H13.5C14.0967 18.0721 14.669 17.835 15.091 17.413C15.5129 16.9911 15.75 16.4188 15.75 15.8221V5.32205C15.75 4.72531 15.5129 4.15302 15.091 3.73106C14.669 3.3091 14.0967 3.07205 13.5 3.07205H12.75C12.75 2.24362 12.0784 1.57205 11.25 1.57205H6.75ZM12.75 4.57205C12.75 5.40048 12.0784 6.07205 11.25 6.07205H6.75C5.92157 6.07205 5.25 5.40048 5.25 4.57205H4.5C4.30109 4.57205 4.11032 4.65107 3.96967 4.79172C3.82902 4.93237 3.75 5.12314 3.75 5.32205V15.8221C3.75 16.021 3.82902 16.2117 3.96967 16.3524C4.11032 16.493 4.30109 16.5721 4.5 16.5721H13.5C13.6989 16.5721 13.8897 16.493 14.0303 16.3524C14.171 16.2117 14.25 16.021 14.25 15.8221V5.32205C14.25 5.12314 14.171 4.93237 14.0303 4.79172C13.8897 4.65107 13.6989 4.57205 13.5 4.57205H12.75ZM6.75 4.57205H11.25V3.07205H6.75V4.57205Z" fill="#38374B"/>
</g>
<defs>
<clipPath id="clip0_468_206">
<rect width="18" height="18" fill="white" transform="translate(0 0.822052)"/>
</clipPath>
</defs>
</svg>
