<svg width="18" height="19" viewBox="0 0 18 19" fill="none" xmlns="http://www.w3.org/2000/svg">
<g clip-path="url(#clip0_92_409)">
<path fill-rule="evenodd" clip-rule="evenodd" d="M6.75 1.65533C5.92157 1.65533 5.25 2.32691 5.25 3.15533H4.5C3.90326 3.15533 3.33097 3.39239 2.90901 3.81434C2.48705 4.2363 2.25 4.8086 2.25 5.40533V15.9053C2.25 16.5021 2.48705 17.0744 2.90901 17.4963C3.33097 17.9183 3.90326 18.1553 4.5 18.1553H13.5C14.0967 18.1553 14.669 17.9183 15.091 17.4963C15.5129 17.0744 15.75 16.5021 15.75 15.9053V5.40533C15.75 4.8086 15.5129 4.2363 15.091 3.81434C14.669 3.39239 14.0967 3.15533 13.5 3.15533H12.75C12.75 2.32691 12.0784 1.65533 11.25 1.65533H6.75ZM12.75 4.65533C12.75 5.48376 12.0784 6.15533 11.25 6.15533H6.75C5.92157 6.15533 5.25 5.48376 5.25 4.65533H4.5C4.30109 4.65533 4.11032 4.73435 3.96967 4.875C3.82902 5.01566 3.75 5.20642 3.75 5.40533V15.9053C3.75 16.1042 3.82902 16.295 3.96967 16.4357C4.11032 16.5763 4.30109 16.6553 4.5 16.6553H13.5C13.6989 16.6553 13.8897 16.5763 14.0303 16.4357C14.171 16.295 14.25 16.1042 14.25 15.9053V5.40533C14.25 5.20642 14.171 5.01566 14.0303 4.875C13.8897 4.73435 13.6989 4.65533 13.5 4.65533H12.75ZM6.75 4.65533H11.25V3.15533H6.75V4.65533Z" fill="white"/>
</g>
<defs>
<clipPath id="clip0_92_409">
<rect width="18" height="18" fill="white" transform="translate(0 0.905334)"/>
</clipPath>
</defs>
</svg>
