<svg width="24" height="25" viewBox="0 0 24 25" fill="none" xmlns="http://www.w3.org/2000/svg">
<path d="M7.26225 8.62188C7.16725 9.6352 7.10059 11.4285 7.69891 12.1918C7.69891 12.1918 7.41725 10.2219 9.94221 7.75023C10.9589 6.75524 11.1939 5.40193 10.8389 4.38695C10.6372 3.81196 10.2689 3.33696 9.94888 3.0053C9.76221 2.8103 9.90554 2.48864 10.1772 2.50031C11.8205 2.57364 14.4838 3.0303 15.6155 5.87026C16.1121 7.1169 16.1488 8.40522 15.9121 9.7152C15.7621 10.5519 15.2288 12.4118 16.4454 12.6402C17.3138 12.8035 17.7338 12.1135 17.9221 11.6168C18.0004 11.4102 18.2721 11.3585 18.4187 11.5235C19.8854 13.1918 20.0104 15.1568 19.7071 16.8484C19.1204 20.1184 15.8088 22.4983 12.5188 22.4983C8.4089 22.4983 5.13728 20.1467 4.28896 15.8901C3.9473 14.1718 4.12063 10.7718 6.77059 8.37189C6.96726 8.19189 7.28892 8.35189 7.26225 8.62188Z" fill="#615EFF"/>
<path d="M14.0205 14.7369C12.5055 12.787 13.1838 10.562 13.5555 9.67534C13.6055 9.55868 13.4721 9.44868 13.3671 9.52034C12.7155 9.96367 11.3805 11.007 10.7589 12.4753C9.9172 14.4603 9.9772 15.4319 10.4755 16.6186C10.7755 17.3336 10.4272 17.4852 10.2522 17.5119C10.0822 17.5386 9.92554 17.4252 9.80054 17.3069C9.44094 16.9617 9.18469 16.523 9.06055 16.0402C9.03388 15.9369 8.89888 15.9086 8.83722 15.9936C8.37056 16.6386 8.1289 17.6736 8.11723 18.4052C8.08056 20.6668 9.94887 22.5001 12.2088 22.5001C15.0571 22.5001 17.1321 19.3502 15.4954 16.7169C15.0205 15.9502 14.5738 15.4486 14.0205 14.7369Z" fill="#8B81FF"/>
</svg>
