<svg width="25" height="27" viewBox="0 0 25 27" fill="none" xmlns="http://www.w3.org/2000/svg">
<g clip-path="url(#clip0_229_401)">
<path d="M24.4873 13.2735C24.4873 12.2083 24.4057 11.431 24.229 10.6249H12.739V15.4327H19.4833C19.3474 16.6275 18.6132 18.4269 16.9814 19.636L16.9585 19.797L20.5915 22.7763L20.8431 22.8029C23.1547 20.5429 24.4873 17.2177 24.4873 13.2735Z" fill="#4285F4"/>
<path d="M12.7391 25.941C16.0433 25.941 18.8171 24.7894 20.8432 22.8029L16.9815 19.636C15.9481 20.3989 14.5611 20.9315 12.7391 20.9315C9.50291 20.9315 6.75622 18.6716 5.77711 15.5479L5.63359 15.5608L1.85604 18.6557L1.80664 18.8011C3.81906 23.0332 7.95272 25.941 12.7391 25.941Z" fill="#34A853"/>
<path d="M5.77702 15.5479C5.51867 14.7418 5.36916 13.8781 5.36916 12.9856C5.36916 12.0931 5.51867 11.2294 5.76343 10.4233L5.75659 10.2517L1.9317 7.10706L1.80655 7.17007C0.97714 8.92626 0.501221 10.8984 0.501221 12.9856C0.501221 15.0729 0.97714 17.0449 1.80655 18.8011L5.77702 15.5479Z" fill="#FBBC05"/>
<path d="M12.7391 5.03967C15.0371 5.03967 16.5871 6.09049 17.471 6.96863L20.9248 3.39869C18.8036 1.31145 16.0433 0.030304 12.7391 0.030304C7.95273 0.030304 3.81906 2.93804 1.80664 7.17008L5.76351 10.4234C6.75622 7.29969 9.50291 5.03967 12.7391 5.03967Z" fill="#EB4335"/>
</g>
<defs>
<clipPath id="clip0_229_401">
<rect width="24" height="26" fill="white" transform="translate(0.5 0.030304)"/>
</clipPath>
</defs>
</svg>
