<svg width="20" height="20" viewBox="0 0 20 20" fill="none" xmlns="http://www.w3.org/2000/svg">
<path fill-rule="evenodd" clip-rule="evenodd" d="M4.16669 3.33332C3.94567 3.33332 3.73371 3.42112 3.57743 3.5774C3.42115 3.73368 3.33335 3.94564 3.33335 4.16666V15.8333C3.33335 16.0543 3.42115 16.2663 3.57743 16.4226C3.73371 16.5789 3.94567 16.6667 4.16669 16.6667H7.50002C7.96026 16.6667 8.33335 17.0398 8.33335 17.5C8.33335 17.9602 7.96026 18.3333 7.50002 18.3333H4.16669C3.50365 18.3333 2.86776 18.0699 2.39892 17.6011C1.93008 17.1322 1.66669 16.4964 1.66669 15.8333V4.16666C1.66669 3.50362 1.93008 2.86773 2.39892 2.39889C2.86776 1.93005 3.50365 1.66666 4.16669 1.66666H7.50002C7.96026 1.66666 8.33335 2.03975 8.33335 2.49999C8.33335 2.96023 7.96026 3.33332 7.50002 3.33332H4.16669ZM12.7441 5.24407C13.0695 4.91863 13.5972 4.91863 13.9226 5.24407L18.0893 9.41073C18.4147 9.73617 18.4147 10.2638 18.0893 10.5892L13.9226 14.7559C13.5972 15.0814 13.0695 15.0814 12.7441 14.7559C12.4187 14.4305 12.4187 13.9028 12.7441 13.5774L15.4882 10.8333H7.50002C7.03978 10.8333 6.66669 10.4602 6.66669 9.99999C6.66669 9.53975 7.03978 9.16666 7.50002 9.16666H15.4882L12.7441 6.42258C12.4187 6.09714 12.4187 5.5695 12.7441 5.24407Z" fill="#838393"/>
</svg>
