<svg width="18" height="19" viewBox="0 0 18 19" fill="none" xmlns="http://www.w3.org/2000/svg">
<path fill-rule="evenodd" clip-rule="evenodd" d="M13.5 2.31433C12.8791 2.31433 12.2837 2.56097 11.8447 2.99999L2.46969 12.375C2.37357 12.4711 2.30538 12.5915 2.27241 12.7234L1.52241 15.7234C1.45851 15.979 1.5334 16.2494 1.71969 16.4357C1.90597 16.6219 2.17634 16.6968 2.43192 16.6329L5.43192 15.8829C5.56379 15.85 5.68423 15.7818 5.78035 15.6857L15.1553 6.31065C15.3727 6.09327 15.5452 5.8352 15.6628 5.55118C15.7805 5.26716 15.841 4.96274 15.841 4.65532C15.841 4.3479 15.7805 4.04348 15.6628 3.75946C15.5452 3.47544 15.3727 3.21737 15.1553 2.99999C14.938 2.78261 14.6799 2.61017 14.3959 2.49253C14.1119 2.37488 13.8074 2.31433 13.5 2.31433ZM12.9053 4.06065C13.0631 3.90294 13.277 3.81433 13.5 3.81433C13.6105 3.81433 13.7198 3.83608 13.8218 3.87835C13.9239 3.92061 14.0166 3.98256 14.0947 4.06065C14.1728 4.13874 14.2347 4.23145 14.277 4.33349C14.3193 4.43552 14.341 4.54488 14.341 4.65532C14.341 4.76576 14.3193 4.87512 14.277 4.97715C14.2347 5.07919 14.1728 5.1719 14.0947 5.24999L4.86658 14.4781L3.28079 14.8745L3.67724 13.2888L12.9053 4.06065Z" fill="#838393"/>
<path d="M9.00002 15.1553C8.5858 15.1553 8.25002 15.4911 8.25002 15.9053C8.25002 16.3195 8.5858 16.6553 9.00002 16.6553H15.75C16.1642 16.6553 16.5 16.3195 16.5 15.9053C16.5 15.4911 16.1642 15.1553 15.75 15.1553H9.00002Z" fill="#838393"/>
</svg>
