<svg width="20" height="21" viewBox="0 0 20 21" fill="none" xmlns="http://www.w3.org/2000/svg">
<g clip-path="url(#clip0_162_512)">
<path d="M10.8334 5.03544C10.8334 4.5752 10.4603 4.20211 10 4.20211C9.5398 4.20211 9.16671 4.5752 9.16671 5.03544V10.0354C9.16671 10.3511 9.34504 10.6396 9.62736 10.7808L12.9607 12.4475C13.3723 12.6533 13.8729 12.4864 14.0787 12.0748C14.2846 11.6631 14.1177 11.1626 13.7061 10.9568L10.8334 9.52041V5.03544Z" fill="white"/>
<path fill-rule="evenodd" clip-rule="evenodd" d="M10 0.868774C4.93743 0.868774 0.833374 4.97283 0.833374 10.0354C0.833374 15.0981 4.93743 19.2021 10 19.2021C15.0626 19.2021 19.1667 15.0981 19.1667 10.0354C19.1667 4.97283 15.0626 0.868774 10 0.868774ZM2.50004 10.0354C2.50004 5.8933 5.8579 2.53544 10 2.53544C14.1422 2.53544 17.5 5.8933 17.5 10.0354C17.5 14.1776 14.1422 17.5354 10 17.5354C5.8579 17.5354 2.50004 14.1776 2.50004 10.0354Z" fill="white"/>
</g>
<defs>
<clipPath id="clip0_162_512">
<rect width="20" height="20" fill="white" transform="translate(0 0.0354004)"/>
</clipPath>
</defs>
</svg>
