<svg width="27" height="27" viewBox="0 0 27 27" fill="none" xmlns="http://www.w3.org/2000/svg">
<path d="M14.5834 6.322C14.5834 5.72369 14.0983 5.23866 13.5 5.23866C12.9017 5.23866 12.4167 5.72369 12.4167 6.322V12.822H5.91671C5.3184 12.822 4.83337 13.307 4.83337 13.9053C4.83337 14.5036 5.3184 14.9887 5.91671 14.9887H12.4167V21.4887C12.4167 22.087 12.9017 22.572 13.5 22.572C14.0983 22.572 14.5834 22.087 14.5834 21.4887V14.9887H21.0834C21.6817 14.9887 22.1667 14.5036 22.1667 13.9053C22.1667 13.307 21.6817 12.822 21.0834 12.822H14.5834V6.322Z" fill="#C3C3C3"/>
</svg>
