<svg width="16" height="17" viewBox="0 0 16 17" fill="none" xmlns="http://www.w3.org/2000/svg">
<path d="M2.00004 3.797C1.63185 3.797 1.33337 4.09547 1.33337 4.46366C1.33337 4.83185 1.63185 5.13033 2.00004 5.13033H2.00671C2.3749 5.13033 2.67337 4.83185 2.67337 4.46366C2.67337 4.09547 2.3749 3.797 2.00671 3.797H2.00004Z" fill="#838393"/>
<path d="M5.33337 3.797C4.96518 3.797 4.66671 4.09547 4.66671 4.46366C4.66671 4.83185 4.96518 5.13033 5.33337 5.13033H14C14.3682 5.13033 14.6667 4.83185 14.6667 4.46366C14.6667 4.09547 14.3682 3.797 14 3.797H5.33337Z" fill="#838393"/>
<path d="M5.33337 7.797C4.96518 7.797 4.66671 8.09547 4.66671 8.46366C4.66671 8.83185 4.96518 9.13033 5.33337 9.13033H14C14.3682 9.13033 14.6667 8.83185 14.6667 8.46366C14.6667 8.09547 14.3682 7.797 14 7.797H5.33337Z" fill="#838393"/>
<path d="M4.66671 12.4637C4.66671 12.0955 4.96518 11.797 5.33337 11.797H14C14.3682 11.797 14.6667 12.0955 14.6667 12.4637C14.6667 12.8319 14.3682 13.1303 14 13.1303H5.33337C4.96518 13.1303 4.66671 12.8319 4.66671 12.4637Z" fill="#838393"/>
<path d="M1.33337 8.46366C1.33337 8.09547 1.63185 7.797 2.00004 7.797H2.00671C2.3749 7.797 2.67337 8.09547 2.67337 8.46366C2.67337 8.83185 2.3749 9.13033 2.00671 9.13033H2.00004C1.63185 9.13033 1.33337 8.83185 1.33337 8.46366Z" fill="#838393"/>
<path d="M2.00004 11.797C1.63185 11.797 1.33337 12.0955 1.33337 12.4637C1.33337 12.8319 1.63185 13.1303 2.00004 13.1303H2.00671C2.3749 13.1303 2.67337 12.8319 2.67337 12.4637C2.67337 12.0955 2.3749 11.797 2.00671 11.797H2.00004Z" fill="#838393"/>
</svg>
