<svg width="20" height="20" viewBox="0 0 20 20" fill="none" xmlns="http://www.w3.org/2000/svg">
<path d="M15.5893 5.58934C15.9147 5.2639 15.9147 4.73626 15.5893 4.41083C15.2638 4.08539 14.7362 4.08539 14.4108 4.41083L10 8.82157L5.58928 4.41083C5.26384 4.08539 4.7362 4.08539 4.41076 4.41083C4.08533 4.73626 4.08533 5.2639 4.41076 5.58934L8.82151 10.0001L4.41076 14.4108C4.08533 14.7363 4.08533 15.2639 4.41076 15.5893C4.7362 15.9148 5.26384 15.9148 5.58928 15.5893L10 11.1786L14.4108 15.5893C14.7362 15.9148 15.2638 15.9148 15.5893 15.5893C15.9147 15.2639 15.9147 14.7363 15.5893 14.4108L11.1785 10.0001L15.5893 5.58934Z" fill="#838393"/>
</svg>
