<svg width="26" height="25" viewBox="0 0 26 25" fill="none" xmlns="http://www.w3.org/2000/svg">
<path d="M14.0416 6.25008C14.0416 5.67479 13.5753 5.20842 13 5.20842C12.4247 5.20842 11.9583 5.67479 11.9583 6.25008V12.5001C11.9583 12.8946 12.1812 13.2553 12.5341 13.4318L16.7008 15.5151C17.2153 15.7724 17.841 15.5638 18.0983 15.0493C18.3556 14.5347 18.147 13.909 17.6325 13.6517L14.0416 11.8563V6.25008Z" fill="#615EFF"/>
<path fill-rule="evenodd" clip-rule="evenodd" d="M13 1.04175C6.6717 1.04175 1.54163 6.17182 1.54163 12.5001C1.54163 18.8283 6.6717 23.9584 13 23.9584C19.3282 23.9584 24.4583 18.8283 24.4583 12.5001C24.4583 6.17182 19.3282 1.04175 13 1.04175ZM3.62496 12.5001C3.62496 7.32241 7.82229 3.12508 13 3.12508C18.1776 3.12508 22.375 7.32241 22.375 12.5001C22.375 17.6778 18.1776 21.8751 13 21.8751C7.82229 21.8751 3.62496 17.6778 3.62496 12.5001Z" fill="#615EFF"/>
</svg>
