<svg width="21" height="22" viewBox="0 0 21 22" fill="none" xmlns="http://www.w3.org/2000/svg">
<g clip-path="url(#clip0_92_383)">
<path fill-rule="evenodd" clip-rule="evenodd" d="M10.5 7.03534C8.567 7.03534 7 8.60234 7 10.5353C7 12.4683 8.567 14.0353 10.5 14.0353C12.433 14.0353 14 12.4683 14 10.5353C14 8.60234 12.433 7.03534 10.5 7.03534ZM8.75 10.5353C8.75 9.56884 9.5335 8.78534 10.5 8.78534C11.4665 8.78534 12.25 9.56884 12.25 10.5353C12.25 11.5018 11.4665 12.2853 10.5 12.2853C9.5335 12.2853 8.75 11.5018 8.75 10.5353Z" fill="#838393"/>
<path fill-rule="evenodd" clip-rule="evenodd" d="M17.7755 13.5136L16.975 13.1603L17.7792 13.505C17.8229 13.4031 17.8955 13.3161 17.988 13.2549C18.0801 13.1939 18.188 13.161 18.2984 13.1603H18.375C19.0712 13.1603 19.7389 12.8838 20.2312 12.3915C20.7234 11.8992 21 11.2315 21 10.5353C21 9.83915 20.7234 9.17147 20.2312 8.67918C19.7389 8.1869 19.0712 7.91034 18.375 7.91034H18.2284C18.118 7.90965 18.0101 7.8768 17.918 7.81579C17.8559 7.7747 17.8028 7.72203 17.7614 7.66102C17.7489 7.6014 17.7302 7.54308 17.7055 7.48705C17.6596 7.38308 17.6459 7.26775 17.6662 7.15593C17.6863 7.04533 17.7386 6.94318 17.8167 6.86236L17.8646 6.8144C18.1085 6.57068 18.3024 6.28095 18.4344 5.96243C18.5665 5.64376 18.6345 5.30218 18.6345 4.95721C18.6345 4.61225 18.5665 4.27067 18.4344 3.952C18.3024 3.63363 18.1091 3.34436 17.8653 3.10072C17.6215 2.85665 17.332 2.66304 17.0133 2.53093C16.6947 2.39883 16.3531 2.33084 16.0081 2.33084C15.6632 2.33084 15.3216 2.39883 15.0029 2.53093C14.6842 2.66303 14.3947 2.85665 14.1509 3.10072L14.103 3.14869C14.0221 3.22671 13.92 3.27908 13.8094 3.29913C13.6976 3.31941 13.5823 3.30572 13.4783 3.25983L13.4697 3.25609C13.3677 3.2124 13.2808 3.13984 13.2195 3.04737C13.1585 2.95525 13.1257 2.84737 13.125 2.7369V2.66034C13.125 1.96415 12.8484 1.29647 12.3562 0.804184C11.8639 0.311901 11.1962 0.0353394 10.5 0.0353394C9.80381 0.0353394 9.13613 0.311901 8.64385 0.804184C8.15156 1.29647 7.875 1.96415 7.875 2.66034V2.8069C7.87431 2.91737 7.84146 3.02525 7.78045 3.11737C7.73936 3.17942 7.68669 3.2325 7.62569 3.27391C7.56606 3.28639 7.50774 3.3051 7.45171 3.32983C7.34774 3.37572 7.23241 3.38941 7.12059 3.36913C7.00999 3.34908 6.90785 3.29671 6.82702 3.21867L6.77906 3.17072C6.53527 2.92665 6.24576 2.73303 5.92709 2.60093C5.60842 2.46883 5.26684 2.40084 4.92188 2.40084C4.57691 2.40084 4.23533 2.46883 3.91666 2.60093C3.59814 2.73297 3.30875 2.92647 3.06503 3.17037C2.82113 3.41409 2.62763 3.70348 2.49559 4.022C2.36349 4.34067 2.2955 4.68225 2.2955 5.02721C2.2955 5.37218 2.36349 5.71376 2.49559 6.03243C2.6277 6.3511 2.82131 6.64061 3.06538 6.8844L3.11333 6.93236C3.19137 7.01318 3.24374 7.11533 3.26379 7.22593C3.28407 7.33775 3.27038 7.45308 3.2245 7.55704C3.21705 7.57391 3.21014 7.591 3.20378 7.60831C3.16439 7.71542 3.09368 7.8082 3.00086 7.87459C2.91018 7.93945 2.80248 7.97619 2.69118 7.98034H2.625C1.92881 7.98034 1.26113 8.2569 0.768845 8.74918C0.276562 9.24147 0 9.90915 0 10.6053C0 11.3015 0.276562 11.9692 0.768845 12.4615C1.26113 12.9538 1.92881 13.2303 2.625 13.2303H2.77156C2.88203 13.231 2.98991 13.2639 3.08203 13.3249C3.17451 13.3861 3.24706 13.4731 3.29075 13.575L3.2945 13.5836C3.34038 13.6876 3.35407 13.8029 3.33379 13.9147C3.31374 14.0253 3.26137 14.1275 3.18335 14.2083L3.13538 14.2563C2.89131 14.5001 2.69769 14.7896 2.56559 15.1082C2.43349 15.4269 2.3655 15.7685 2.3655 16.1135C2.3655 16.4584 2.43349 16.8 2.56559 17.1187C2.69769 17.4374 2.89131 17.7269 3.13538 17.9707C3.37903 18.2144 3.66829 18.4078 3.98666 18.5397C4.30533 18.6718 4.64691 18.7398 4.99187 18.7398C5.33684 18.7398 5.67842 18.6718 5.99709 18.5397C6.31561 18.4077 6.605 18.2142 6.84873 17.9703L6.89701 17.922C6.97784 17.844 7.07999 17.7916 7.19059 17.7715C7.30241 17.7513 7.41774 17.765 7.52171 17.8108C7.53857 17.8183 7.55567 17.8252 7.57297 17.8316C7.68008 17.871 7.77286 17.9417 7.83925 18.0345C7.90411 18.1252 7.94085 18.2329 7.945 18.3442V18.4103C7.945 19.1065 8.22156 19.7742 8.71385 20.2665C9.20613 20.7588 9.87381 21.0353 10.57 21.0353C11.2662 21.0353 11.9339 20.7588 12.4262 20.2665C12.9184 19.7742 13.195 19.1065 13.195 18.4103V18.2638C13.1957 18.1533 13.2285 18.0454 13.2895 17.9533C13.3508 17.8608 13.4377 17.7883 13.5397 17.7446L13.5483 17.7408C13.6523 17.695 13.7676 17.6813 13.8794 17.7015C13.99 17.7216 14.0921 17.774 14.173 17.852L14.2209 17.9C14.4647 18.1439 14.7544 18.3377 15.0729 18.4697C15.3916 18.6018 15.7332 18.6698 16.0781 18.6698C16.4231 18.6698 16.7647 18.6018 17.0833 18.4697C17.4019 18.3377 17.6912 18.1442 17.935 17.9003C18.1789 17.6566 18.3724 17.3672 18.5044 17.0487C18.6365 16.73 18.7045 16.3884 18.7045 16.0435C18.7045 15.6985 18.6365 15.3569 18.5044 15.0382C18.3724 14.7197 18.1789 14.4303 17.935 14.1866L17.8866 14.1383C17.8086 14.0575 17.7563 13.9553 17.7362 13.8447C17.7159 13.7329 17.7296 13.6176 17.7755 13.5136ZM9.88128 2.04162C10.0454 1.87753 10.2679 1.78534 10.5 1.78534C10.7321 1.78534 10.9546 1.87753 11.1187 2.04162C11.2828 2.20572 11.375 2.42828 11.375 2.66034V2.73909L11.375 2.74258C11.3768 3.19479 11.5108 3.6366 11.7605 4.01363C12.0093 4.38935 12.3622 4.68439 12.776 4.86273C13.1987 5.04828 13.6673 5.10344 14.1216 5.02106C14.5775 4.9384 14.9982 4.72107 15.3294 4.39709L15.3362 4.39031L15.3887 4.33781C15.47 4.25645 15.5668 4.19157 15.6731 4.14754C15.7793 4.1035 15.8931 4.08084 16.0081 4.08084C16.1231 4.08084 16.237 4.1035 16.3432 4.14754C16.4494 4.19157 16.5459 4.25611 16.6272 4.33746L16.6279 4.33815C16.7092 4.41942 16.7738 4.51592 16.8178 4.62214C16.8618 4.72837 16.8845 4.84223 16.8845 4.95721C16.8845 5.0722 16.8618 5.18606 16.8178 5.29229C16.7738 5.39851 16.7092 5.49501 16.6279 5.57628L16.575 5.62912L16.5682 5.63598C16.2443 5.96718 16.0269 6.38784 15.9443 6.84372C15.8725 7.2395 15.9051 7.64607 16.0374 8.02375C16.0478 8.10321 16.069 8.18104 16.1008 8.25503C16.2789 8.67068 16.5747 9.02516 16.9517 9.27485C17.3287 9.52454 17.7706 9.65853 18.2228 9.66033L18.2262 9.66034H18.375C18.6071 9.66034 18.8296 9.75253 18.9937 9.91662C19.1578 10.0807 19.25 10.3033 19.25 10.5353C19.25 10.7674 19.1578 10.99 18.9937 11.1541C18.8296 11.3182 18.6071 11.4103 18.375 11.4103L18.2962 11.4103L18.2928 11.4103C17.8406 11.4122 17.3987 11.5461 17.0217 11.7958C16.646 12.0447 16.3509 12.3976 16.1726 12.8114C15.987 13.2341 15.9319 13.7027 16.0143 14.157C16.0969 14.6128 16.3143 15.0335 16.6382 15.3647L16.645 15.3716L16.6975 15.4241C16.7789 15.5053 16.8438 15.6022 16.8878 15.7084C16.9318 15.8146 16.9545 15.9285 16.9545 16.0435C16.9545 16.1585 16.9318 16.2723 16.8878 16.3785C16.8438 16.4848 16.7792 16.5813 16.6979 16.6625L16.6972 16.6632C16.6159 16.7446 16.5194 16.8091 16.4132 16.8531C16.307 16.8972 16.1931 16.9198 16.0781 16.9198C15.9631 16.9198 15.8493 16.8972 15.7431 16.8531C15.6368 16.8091 15.5403 16.7446 15.4591 16.6632L15.4062 16.6104L15.3994 16.6036C15.0682 16.2796 14.6475 16.0623 14.1916 15.9796C13.7373 15.8972 13.2688 15.9524 12.8461 16.1379C12.4323 16.3162 12.0793 16.6113 11.8305 16.9871C11.5808 17.3641 11.4468 17.8059 11.445 18.2581L11.445 18.2616V18.4103C11.445 18.6424 11.3528 18.865 11.1887 19.0291C11.0246 19.1932 10.8021 19.2853 10.57 19.2853C10.3379 19.2853 10.1154 19.1932 9.95128 19.0291C9.78719 18.865 9.695 18.6424 9.695 18.4103V18.3316L9.69476 18.3111C9.68388 17.846 9.53332 17.3949 9.26265 17.0164C8.99734 16.6455 8.62866 16.3612 8.20292 16.1988C7.78571 16.0206 7.32517 15.9686 6.87838 16.0496C6.4225 16.1323 6.00184 16.3496 5.67064 16.6736L5.66377 16.6804L5.61127 16.7329C5.53001 16.8142 5.43317 16.8791 5.32695 16.9231C5.22072 16.9672 5.10686 16.9898 4.99187 16.9898C4.87689 16.9898 4.76303 16.9672 4.6568 16.9231C4.55058 16.8791 4.45407 16.8146 4.37281 16.7332L4.37212 16.7325C4.29077 16.6513 4.22623 16.5548 4.1822 16.4485C4.13816 16.3423 4.1155 16.2285 4.1155 16.1135C4.1155 15.9985 4.13816 15.8846 4.1822 15.7784C4.22623 15.6722 4.29077 15.5757 4.37212 15.4944L4.42497 15.4416L4.43176 15.4347C4.75573 15.1035 4.97306 14.6828 5.05572 14.227C5.1381 13.7726 5.08294 13.3041 4.89739 12.8813C4.71905 12.4675 4.42401 12.1147 4.04829 11.8658C3.67126 11.6161 3.22945 11.4822 2.77724 11.4803L2.77375 11.4803H2.625C2.39294 11.4803 2.17038 11.3882 2.00628 11.2241C1.84219 11.06 1.75 10.8374 1.75 10.6053C1.75 10.3733 1.84219 10.1507 2.00628 9.98662C2.17038 9.82253 2.39294 9.73034 2.625 9.73034H2.70375L2.72421 9.7301C3.18936 9.71922 3.64048 9.56866 4.01892 9.29799C4.38986 9.03268 4.67415 8.664 4.83652 8.23827C5.01474 7.82106 5.06673 7.36052 4.98572 6.91372C4.90306 6.45784 4.68573 6.03718 4.36175 5.70598L4.35497 5.69912L4.30247 5.64662C4.22111 5.56536 4.15623 5.46851 4.1122 5.36229C4.06816 5.25606 4.0455 5.1422 4.0455 5.02721C4.0455 4.91223 4.06816 4.79837 4.1122 4.69214C4.15623 4.58592 4.22077 4.48942 4.30212 4.40815L4.30281 4.40746C4.38408 4.32611 4.48058 4.26157 4.5868 4.21754C4.69303 4.1735 4.80689 4.15084 4.92188 4.15084C5.03686 4.15084 5.15072 4.1735 5.25695 4.21754C5.36317 4.26157 5.45967 4.32611 5.54094 4.40746L5.59378 4.46031L5.60064 4.46709C5.93184 4.79107 6.3525 5.0084 6.80838 5.09105C7.20416 5.16282 7.61073 5.13022 7.98841 4.99796C8.06787 4.98757 8.1457 4.9663 8.21969 4.93459C8.63533 4.75645 8.98982 4.46066 9.23951 4.08363C9.4892 3.7066 9.62319 3.26479 9.62499 2.81258L9.625 2.80909V2.66034C9.625 2.42828 9.71719 2.20572 9.88128 2.04162Z" fill="#838393"/>
</g>
<defs>
<clipPath id="clip0_92_383">
<rect width="21" height="21" fill="white" transform="translate(0 0.0353394)"/>
</clipPath>
</defs>
</svg>
