<svg width="21" height="22" viewBox="0 0 21 22" fill="none" xmlns="http://www.w3.org/2000/svg">
<g clip-path="url(#clip0_147_740)">
<path fill-rule="evenodd" clip-rule="evenodd" d="M11.0372 1.09466C10.7212 0.8489 10.2788 0.8489 9.9628 1.09466L2.0878 7.21966C1.87466 7.38543 1.75 7.64032 1.75 7.91034V17.5353C1.75 18.2315 2.02656 18.8992 2.51884 19.3915C3.01113 19.8838 3.67881 20.1603 4.375 20.1603H16.625C17.3212 20.1603 17.9889 19.8838 18.4812 19.3915C18.9734 18.8992 19.25 18.2315 19.25 17.5353V7.91034C19.25 7.64032 19.1253 7.38543 18.9122 7.21966L11.0372 1.09466ZM14 18.4103H16.625C16.8571 18.4103 17.0796 18.3182 17.2437 18.1541C17.4078 17.99 17.5 17.7674 17.5 17.5353V8.33829L10.5 2.89384L3.5 8.33829V17.5353C3.5 17.7674 3.59219 17.99 3.75628 18.1541C3.92038 18.3182 4.14294 18.4103 4.375 18.4103H7V10.5353C7 10.0521 7.39175 9.66034 7.875 9.66034H13.125C13.6082 9.66034 14 10.0521 14 10.5353V18.4103ZM8.75 18.4103V11.4103H12.25V18.4103H8.75Z" fill="#838393"/>
</g>
<defs>
<clipPath id="clip0_147_740">
<rect width="21" height="21" fill="white" transform="translate(0 0.0353394)"/>
</clipPath>
</defs>
</svg>
