<svg width="20" height="21" viewBox="0 0 20 21" fill="none" xmlns="http://www.w3.org/2000/svg">
<g clip-path="url(#clip0_92_392)">
<path fill-rule="evenodd" clip-rule="evenodd" d="M14.1667 1.70202C14.1667 1.24178 13.7936 0.868683 13.3334 0.868683C12.8731 0.868683 12.5 1.24178 12.5 1.70202V2.53535H7.50002V1.70202C7.50002 1.24178 7.12692 0.868683 6.66669 0.868683C6.20645 0.868683 5.83335 1.24178 5.83335 1.70202V2.53535H4.16669C2.78598 2.53535 1.66669 3.65464 1.66669 5.03535V16.702C1.66669 18.0827 2.78598 19.202 4.16669 19.202H15.8334C17.2141 19.202 18.3334 18.0827 18.3334 16.702V5.03535C18.3334 3.65464 17.2141 2.53535 15.8334 2.53535H14.1667V1.70202ZM16.6667 7.53535V5.03535C16.6667 4.57511 16.2936 4.20202 15.8334 4.20202H14.1667V5.03535C14.1667 5.49559 13.7936 5.86868 13.3334 5.86868C12.8731 5.86868 12.5 5.49559 12.5 5.03535V4.20202H7.50002V5.03535C7.50002 5.49559 7.12692 5.86868 6.66669 5.86868C6.20645 5.86868 5.83335 5.49559 5.83335 5.03535V4.20202H4.16669C3.70645 4.20202 3.33335 4.57511 3.33335 5.03535V7.53535H16.6667ZM3.33335 9.20201H16.6667V16.702C16.6667 17.1623 16.2936 17.5353 15.8334 17.5353H4.16669C3.70645 17.5353 3.33335 17.1623 3.33335 16.702V9.20201Z" fill="#838393"/>
</g>
<defs>
<clipPath id="clip0_92_392">
<rect width="20" height="20" fill="white" transform="translate(0 0.0353394)"/>
</clipPath>
</defs>
</svg>
