<svg width="25" height="25" viewBox="0 0 25 25" fill="none" xmlns="http://www.w3.org/2000/svg">
<path d="M19.6392 7.20711C20.0298 6.81658 20.0298 6.18342 19.6392 5.79289C19.2487 5.40237 18.6155 5.40237 18.225 5.79289L12.9321 11.0858L7.63924 5.79289C7.24871 5.40237 6.61555 5.40237 6.22502 5.79289C5.8345 6.18342 5.8345 6.81658 6.22502 7.20711L11.5179 12.5L6.22502 17.7929C5.8345 18.1834 5.8345 18.8166 6.22502 19.2071C6.61555 19.5976 7.24871 19.5976 7.63924 19.2071L12.9321 13.9142L18.225 19.2071C18.6155 19.5976 19.2487 19.5976 19.6392 19.2071C20.0298 18.8166 20.0298 18.1834 19.6392 17.7929L14.3463 12.5L19.6392 7.20711Z" fill="#615EFF" stroke="#615EFF" stroke-linecap="round" stroke-linejoin="round"/>
</svg>
