<svg width="11" height="12" viewBox="0 0 11 12" fill="none" xmlns="http://www.w3.org/2000/svg">
<g clip-path="url(#clip0_92_470)">
<path fill-rule="evenodd" clip-rule="evenodd" d="M3.20837 0.951996C2.8437 0.951996 2.49396 1.09686 2.2361 1.35472C1.97824 1.61259 1.83337 1.96232 1.83337 2.327V9.66033C1.83337 9.83201 1.92932 9.9893 2.08198 10.0679C2.23464 10.1464 2.4184 10.1331 2.55811 10.0333L5.50004 7.93191L8.44197 10.0333C8.58168 10.1331 8.76544 10.1464 8.9181 10.0679C9.07076 9.9893 9.16671 9.83201 9.16671 9.66033V2.327C9.16671 1.96232 9.02184 1.61259 8.76398 1.35472C8.50612 1.09686 8.15638 0.951996 7.79171 0.951996H3.20837ZM2.88428 2.00291C2.97024 1.91695 3.08682 1.86866 3.20837 1.86866H7.79171C7.91327 1.86866 8.02984 1.91695 8.1158 2.00291C8.20175 2.08886 8.25004 2.20544 8.25004 2.327V8.7697L5.76644 6.9957C5.60708 6.88187 5.393 6.88187 5.23364 6.9957L2.75004 8.7697V2.327C2.75004 2.20544 2.79833 2.08886 2.88428 2.00291Z" fill="#9292A0"/>
</g>
<defs>
<clipPath id="clip0_92_470">
<rect width="11" height="11" fill="white" transform="translate(0 0.0353394)"/>
</clipPath>
</defs>
</svg>
