<svg width="20" height="21" viewBox="0 0 20 21" fill="none" xmlns="http://www.w3.org/2000/svg">
<path d="M8.33334 4.66667C8.33334 3.74619 9.07954 3 10 3C10.9205 3 11.6667 3.74619 11.6667 4.66667C11.6667 5.58714 10.9205 6.33333 10 6.33333C9.07954 6.33333 8.33334 5.58714 8.33334 4.66667Z" fill="#838393"/>
<path d="M8.33334 10.5C8.33334 9.57953 9.07954 8.83333 10 8.83333C10.9205 8.83333 11.6667 9.57953 11.6667 10.5C11.6667 11.4205 10.9205 12.1667 10 12.1667C9.07954 12.1667 8.33334 11.4205 8.33334 10.5Z" fill="#838393"/>
<path d="M10 14.6667C9.07954 14.6667 8.33334 15.4129 8.33334 16.3333C8.33334 17.2538 9.07954 18 10 18C10.9205 18 11.6667 17.2538 11.6667 16.3333C11.6667 15.4129 10.9205 14.6667 10 14.6667Z" fill="#838393"/>
</svg>
