<svg width="35" height="35" viewBox="0 0 35 35" fill="none" xmlns="http://www.w3.org/2000/svg">
<g clip-path="url(#clip0_209_531)">
<path fill-rule="evenodd" clip-rule="evenodd" d="M17.5 11.8333C14.3704 11.8333 11.8333 14.3704 11.8333 17.5C11.8333 20.6296 14.3704 23.1667 17.5 23.1667C20.6296 23.1667 23.1667 20.6296 23.1667 17.5C23.1667 14.3704 20.6296 11.8333 17.5 11.8333ZM14.6667 17.5C14.6667 15.9352 15.9352 14.6667 17.5 14.6667C19.0648 14.6667 20.3333 15.9352 20.3333 17.5C20.3333 19.0648 19.0648 20.3333 17.5 20.3333C15.9352 20.3333 14.6667 19.0648 14.6667 17.5Z" fill="white"/>
<path fill-rule="evenodd" clip-rule="evenodd" d="M29.2794 22.322L27.9833 21.75L29.2854 22.3081C29.3562 22.143 29.4737 22.0022 29.6234 21.9031C29.7725 21.8043 29.9472 21.7511 30.126 21.75H30.25C31.3772 21.75 32.4582 21.3022 33.2552 20.5052C34.0522 19.7082 34.5 18.6272 34.5 17.5C34.5 16.3728 34.0522 15.2918 33.2552 14.4948C32.4582 13.6978 31.3772 13.25 30.25 13.25H30.0127C29.8339 13.2489 29.6592 13.1957 29.5101 13.0969C29.4096 13.0304 29.3236 12.9451 29.2566 12.8463C29.2364 12.7498 29.2061 12.6554 29.1661 12.5647C29.0918 12.3963 29.0696 12.2096 29.1024 12.0286C29.1349 11.8495 29.2197 11.6841 29.346 11.5533L29.4237 11.4756C29.8186 11.081 30.1324 10.6119 30.3462 10.0962C30.5601 9.58031 30.6701 9.02727 30.6701 8.46875C30.6701 7.91023 30.5601 7.35719 30.3462 6.84125C30.1325 6.3258 29.8194 5.85747 29.4248 5.46299C29.0301 5.06784 28.5614 4.75436 28.0454 4.54049C27.5295 4.32661 26.9764 4.21652 26.4179 4.21652C25.8594 4.21652 25.3064 4.32661 24.7904 4.54049C24.2745 4.75436 23.8057 5.06784 23.411 5.46299L23.3334 5.54066C23.2025 5.66699 23.0371 5.75177 22.8581 5.78424C22.677 5.81706 22.4903 5.7949 22.322 5.72061L22.3081 5.71455C22.143 5.64381 22.0022 5.52634 21.9031 5.37661C21.8043 5.22747 21.7511 5.0528 21.75 4.87396V4.75C21.75 3.62283 21.3022 2.54183 20.5052 1.7448C19.7082 0.947767 18.6272 0.5 17.5 0.5C16.3728 0.5 15.2918 0.947767 14.4948 1.7448C13.6978 2.54183 13.25 3.62283 13.25 4.75V4.98729C13.2489 5.16614 13.1957 5.34081 13.0969 5.48995C13.0304 5.59041 12.9451 5.67635 12.8463 5.7434C12.7498 5.76361 12.6554 5.7939 12.5647 5.83394C12.3963 5.90823 12.2096 5.93039 12.0286 5.89757C11.8495 5.8651 11.6841 5.78031 11.5533 5.65397L11.4756 5.57632C11.0809 5.18117 10.6122 4.8677 10.0962 4.65382C9.5803 4.43994 9.02727 4.32985 8.46875 4.32985C7.91023 4.32985 7.35719 4.43994 6.84125 4.65382C6.32555 4.8676 5.85703 5.18088 5.46243 5.57577C5.06754 5.97036 4.75426 6.43889 4.54049 6.95459C4.32661 7.47053 4.21652 8.02357 4.21652 8.58208C4.21652 9.1406 4.32661 9.69364 4.54049 10.2096C4.75436 10.7255 5.06784 11.1942 5.46299 11.589L5.54064 11.6666C5.66698 11.7975 5.75177 11.9628 5.78424 12.1419C5.81706 12.323 5.7949 12.5097 5.72061 12.678C5.70856 12.7053 5.69738 12.733 5.68707 12.761C5.62329 12.9344 5.50882 13.0846 5.35853 13.1921C5.21171 13.2971 5.03735 13.3566 4.85715 13.3633H4.75C3.62283 13.3633 2.54183 13.8111 1.7448 14.6081C0.947767 15.4052 0.5 16.4862 0.5 17.6133C0.5 18.7405 0.947767 19.8215 1.7448 20.6185C2.54183 21.4156 3.62283 21.8633 4.75 21.8633H4.98729C5.16614 21.8645 5.34081 21.9176 5.48995 22.0164C5.63968 22.1156 5.75714 22.2563 5.82788 22.4214L5.83394 22.4353C5.90823 22.6037 5.93039 22.7904 5.89757 22.9714C5.8651 23.1505 5.78032 23.3159 5.65399 23.4467L5.57632 23.5244C5.18117 23.9191 4.8677 24.3878 4.65382 24.9038C4.43994 25.4197 4.32985 25.9727 4.32985 26.5312C4.32985 27.0898 4.43994 27.6428 4.65382 28.1587C4.8677 28.6747 5.18117 29.1434 5.57632 29.5381C5.9708 29.9328 6.43913 30.2458 6.95459 30.4595C7.47053 30.6734 8.02356 30.7835 8.58208 30.7835C9.1406 30.7835 9.69364 30.6734 10.2096 30.4595C10.7253 30.2457 11.1938 29.9325 11.5884 29.5376L11.6666 29.4594C11.7974 29.333 11.9628 29.2482 12.1419 29.2158C12.323 29.1829 12.5097 29.2051 12.678 29.2794C12.7053 29.2914 12.733 29.3026 12.761 29.3129C12.9344 29.3767 13.0846 29.4912 13.1921 29.6415C13.2971 29.7883 13.3566 29.9627 13.3633 30.1428V30.25C13.3633 31.3772 13.8111 32.4582 14.6081 33.2552C15.4052 34.0522 16.4862 34.5 17.6133 34.5C18.7405 34.5 19.8215 34.0522 20.6185 33.2552C21.4156 32.4582 21.8633 31.3772 21.8633 30.25V30.0127C21.8645 29.8339 21.9176 29.6592 22.0164 29.5101C22.1156 29.3603 22.2563 29.2429 22.4214 29.1721L22.4353 29.1661C22.6037 29.0918 22.7904 29.0696 22.9714 29.1024C23.1505 29.1349 23.3158 29.2197 23.4467 29.346L23.5244 29.4237C23.919 29.8186 24.3881 30.1324 24.9038 30.3462C25.4197 30.5601 25.9727 30.6701 26.5312 30.6701C27.0898 30.6701 27.6428 30.5601 28.1587 30.3462C28.6744 30.1324 29.143 29.8191 29.5376 29.4242C29.9325 29.0296 30.2457 28.5611 30.4595 28.0454C30.6734 27.5295 30.7835 26.9764 30.7835 26.4179C30.7835 25.8594 30.6734 25.3064 30.4595 24.7904C30.2457 24.2747 29.9325 23.8062 29.5376 23.4116L29.4593 23.3333C29.333 23.2025 29.2482 23.0371 29.2158 22.8581C29.1829 22.677 29.2051 22.4903 29.2794 22.322ZM16.4983 3.74827C16.7639 3.48259 17.1243 3.33333 17.5 3.33333C17.8757 3.33333 18.2361 3.48259 18.5017 3.74827C18.7674 4.01394 18.9167 4.37428 18.9167 4.75V4.8775L18.9167 4.88315C18.9196 5.6153 19.1365 6.33061 19.5408 6.94104C19.9436 7.54934 20.515 8.02703 21.1849 8.31577C21.8694 8.6162 22.628 8.70549 23.3636 8.57211C24.1017 8.43828 24.7827 8.08642 25.319 7.56189L25.3301 7.5509L25.4151 7.4659C25.5466 7.33418 25.7034 7.22914 25.8754 7.15784C26.0474 7.08655 26.2317 7.04985 26.4179 7.04985C26.6041 7.04985 26.7884 7.08655 26.9604 7.15784C27.1324 7.22913 27.2886 7.33363 27.4202 7.46534L27.4213 7.46646C27.553 7.59803 27.6575 7.75427 27.7288 7.92625C27.8001 8.09823 27.8368 8.28258 27.8368 8.46875C27.8368 8.65492 27.8001 8.83927 27.7288 9.01125C27.6575 9.18323 27.553 9.33947 27.4213 9.47104L27.3358 9.5566L27.3248 9.56771C26.8002 10.1039 26.4484 10.785 26.3146 11.5231C26.1984 12.1639 26.2512 12.8221 26.4653 13.4336C26.4821 13.5623 26.5165 13.6883 26.5679 13.8081C26.8563 14.481 27.3352 15.0549 27.9456 15.4592C28.5561 15.8635 29.2714 16.0804 30.0035 16.0833L30.0092 16.0833H30.25C30.6257 16.0833 30.9861 16.2326 31.2517 16.4983C31.5174 16.7639 31.6667 17.1243 31.6667 17.5C31.6667 17.8757 31.5174 18.2361 31.2517 18.5017C30.9861 18.7674 30.6257 18.9167 30.25 18.9167L30.1225 18.9167L30.1168 18.9167C29.3847 18.9196 28.6694 19.1365 28.059 19.5408C27.4506 19.9437 26.9729 20.5151 26.6842 21.1851C26.3838 21.8695 26.2945 22.628 26.4279 23.3636C26.5617 24.1017 26.9136 24.7827 27.4381 25.319L27.4491 25.3301L27.5341 25.4151C27.6658 25.5466 27.7709 25.7034 27.8422 25.8754C27.9135 26.0474 27.9501 26.2317 27.9501 26.4179C27.9501 26.6041 27.9135 26.7884 27.8422 26.9604C27.7709 27.1324 27.6664 27.2886 27.5347 27.4202L27.5335 27.4213C27.402 27.553 27.2457 27.6575 27.0737 27.7288C26.9018 27.8001 26.7174 27.8368 26.5312 27.8368C26.3451 27.8368 26.1607 27.8001 25.9888 27.7288C25.8168 27.6575 25.6605 27.553 25.529 27.4213L25.4434 27.3358L25.4323 27.3248C24.8961 26.8002 24.215 26.4484 23.4769 26.3146C22.7414 26.1812 21.9828 26.2705 21.2984 26.5708C20.6284 26.8596 20.057 27.3373 19.6541 27.9456C19.2499 28.5561 19.0329 29.2714 19.03 30.0035L19.03 30.0092V30.25C19.03 30.6257 18.8807 30.9861 18.6151 31.2517C18.3494 31.5174 17.9891 31.6667 17.6133 31.6667C17.2376 31.6667 16.8773 31.5174 16.6116 31.2517C16.3459 30.9861 16.1967 30.6257 16.1967 30.25V30.1225L16.1963 30.0894C16.1787 29.3363 15.9349 28.6059 15.4967 27.9932C15.0671 27.3926 14.4702 26.9323 13.7809 26.6694C13.1054 26.3809 12.3598 26.2967 11.6364 26.4279C10.8983 26.5617 10.2173 26.9136 9.68104 27.4381L9.66992 27.4491L9.58492 27.5341C9.45335 27.6658 9.29657 27.7709 9.12458 27.8422C8.9526 27.9135 8.76825 27.9501 8.58208 27.9501C8.39591 27.9501 8.21157 27.9135 8.03958 27.8422C7.8676 27.7709 7.71136 27.6664 7.57979 27.5347L7.57868 27.5335C7.44696 27.402 7.34247 27.2457 7.27118 27.0737C7.19988 26.9018 7.16319 26.7174 7.16319 26.5312C7.16319 26.3451 7.19988 26.1607 7.27118 25.9888C7.34247 25.8168 7.44696 25.6605 7.57868 25.529L7.66423 25.4434L7.67522 25.4323C8.19975 24.8961 8.55162 24.215 8.68544 23.4769C8.81882 22.7413 8.72953 21.9827 8.4291 21.2983C8.14037 20.6283 7.66268 20.057 7.05437 19.6541C6.44394 19.2499 5.72863 19.0329 4.99648 19.03L4.99083 19.03H4.75C4.37428 19.03 4.01394 18.8807 3.74827 18.6151C3.48259 18.3494 3.33333 17.9891 3.33333 17.6133C3.33333 17.2376 3.48259 16.8773 3.74827 16.6116C4.01394 16.3459 4.37428 16.1967 4.75 16.1967H4.8775L4.91063 16.1963C5.66372 16.1787 6.3941 15.9349 7.00682 15.4967C7.60739 15.0671 8.06768 14.4702 8.33055 13.7809C8.6191 13.1055 8.70328 12.3598 8.57211 11.6364C8.43828 10.8983 8.08642 10.2173 7.56189 9.68104L7.5509 9.66993L7.4659 9.58493C7.33418 9.45336 7.22914 9.29656 7.15784 9.12458C7.08655 8.9526 7.04985 8.76826 7.04985 8.58208C7.04985 8.39591 7.08655 8.21157 7.15784 8.03958C7.22914 7.8676 7.33363 7.71136 7.46534 7.57979L7.46646 7.57868C7.59803 7.44696 7.75427 7.34247 7.92625 7.27118C8.09823 7.19988 8.28258 7.16319 8.46875 7.16319C8.65492 7.16319 8.83927 7.19988 9.01125 7.27118C9.18323 7.34247 9.33947 7.44696 9.47104 7.57868L9.5566 7.66423L9.56771 7.67522C10.1039 8.19975 10.785 8.55162 11.5231 8.68544C12.1639 8.80163 12.8221 8.74885 13.4336 8.53472C13.5623 8.5179 13.6883 8.48345 13.8081 8.43211C14.481 8.1437 15.0549 7.6648 15.4592 7.05437C15.8635 6.44394 16.0804 5.72863 16.0833 4.99648L16.0833 4.99083V4.75C16.0833 4.37428 16.2326 4.01394 16.4983 3.74827Z" fill="white"/>
</g>
<defs>
<clipPath id="clip0_209_531">
<rect width="34" height="34" fill="white" transform="translate(0.5 0.5)"/>
</clipPath>
</defs>
</svg>
