<svg width="20" height="21" viewBox="0 0 20 21" fill="none" xmlns="http://www.w3.org/2000/svg">
<g clip-path="url(#clip0_92_389)">
<path fill-rule="evenodd" clip-rule="evenodd" d="M9.99998 7.53535C8.61927 7.53535 7.49998 8.65464 7.49998 10.0353C7.49998 11.4161 8.61927 12.5353 9.99998 12.5353C11.3807 12.5353 12.5 11.4161 12.5 10.0353C12.5 8.65464 11.3807 7.53535 9.99998 7.53535ZM9.16665 10.0353C9.16665 9.57511 9.53974 9.20201 9.99998 9.20201C10.4602 9.20201 10.8333 9.57511 10.8333 10.0353C10.8333 10.4956 10.4602 10.8687 9.99998 10.8687C9.53974 10.8687 9.16665 10.4956 9.16665 10.0353Z" fill="#838393"/>
<path fill-rule="evenodd" clip-rule="evenodd" d="M4.16665 10.0353C4.16665 6.81369 6.77832 4.20202 9.99998 4.20202C13.2216 4.20202 15.8333 6.81369 15.8333 10.0353C15.8333 13.257 13.2216 15.8687 9.99998 15.8687C6.77832 15.8687 4.16665 13.257 4.16665 10.0353ZM9.99998 5.86868C7.69879 5.86868 5.83331 7.73416 5.83331 10.0353C5.83331 12.3365 7.69879 14.202 9.99998 14.202C12.3012 14.202 14.1666 12.3365 14.1666 10.0353C14.1666 7.73416 12.3012 5.86868 9.99998 5.86868Z" fill="#838393"/>
<path fill-rule="evenodd" clip-rule="evenodd" d="M0.833313 10.0353C0.833313 4.97274 4.93737 0.868683 9.99998 0.868683C15.0626 0.868683 19.1666 4.97274 19.1666 10.0353C19.1666 15.098 15.0626 19.202 9.99998 19.202C4.93737 19.202 0.833313 15.098 0.833313 10.0353ZM9.99998 2.53535C5.85784 2.53535 2.49998 5.89321 2.49998 10.0353C2.49998 14.1775 5.85784 17.5353 9.99998 17.5353C14.1421 17.5353 17.5 14.1775 17.5 10.0353C17.5 5.89321 14.1421 2.53535 9.99998 2.53535Z" fill="#838393"/>
</g>
<defs>
<clipPath id="clip0_92_389">
<rect width="20" height="20" fill="white" transform="translate(0 0.0353394)"/>
</clipPath>
</defs>
</svg>
