<svg width="18" height="19" viewBox="0 0 18 19" fill="none" xmlns="http://www.w3.org/2000/svg">
<path d="M1.5 5.40533C1.5 4.99112 1.83579 4.65533 2.25 4.65533H15.75C16.1642 4.65533 16.5 4.99112 16.5 5.40533C16.5 5.81955 16.1642 6.15533 15.75 6.15533H2.25C1.83579 6.15533 1.5 5.81955 1.5 5.40533Z" fill="#838393"/>
<path d="M1.5 9.90533C1.5 9.49112 1.83579 9.15533 2.25 9.15533H15.75C16.1642 9.15533 16.5 9.49112 16.5 9.90533C16.5 10.3195 16.1642 10.6553 15.75 10.6553H2.25C1.83579 10.6553 1.5 10.3195 1.5 9.90533Z" fill="#838393"/>
<path d="M2.25 13.6553C1.83579 13.6553 1.5 13.9911 1.5 14.4053C1.5 14.8195 1.83579 15.1553 2.25 15.1553H15.75C16.1642 15.1553 16.5 14.8195 16.5 14.4053C16.5 13.9911 16.1642 13.6553 15.75 13.6553H2.25Z" fill="#838393"/>
</svg>
