<svg width="21" height="22" viewBox="0 0 21 22" fill="none" xmlns="http://www.w3.org/2000/svg">
<path fill-rule="evenodd" clip-rule="evenodd" d="M11.0372 1.77431C10.7212 1.52856 10.2788 1.52856 9.9628 1.77431L2.0878 7.89931C1.87466 8.06509 1.75 8.31998 1.75 8.59V18.215C1.75 18.9112 2.02656 19.5789 2.51884 20.0712C3.01113 20.5634 3.67881 20.84 4.375 20.84H16.625C17.3212 20.84 17.9889 20.5634 18.4812 20.0712C18.9734 19.5789 19.25 18.9112 19.25 18.215V8.59C19.25 8.31998 19.1253 8.06509 18.9122 7.89931L11.0372 1.77431ZM14 19.09H16.625C16.8571 19.09 17.0796 18.9978 17.2437 18.8337C17.4078 18.6696 17.5 18.4471 17.5 18.215V9.01795L10.5 3.5735L3.5 9.01795V18.215C3.5 18.4471 3.59219 18.6696 3.75628 18.8337C3.92038 18.9978 4.14294 19.09 4.375 19.09H7V11.215C7 10.7317 7.39175 10.34 7.875 10.34H13.125C13.6082 10.34 14 10.7317 14 11.215V19.09ZM8.75 19.09V12.09H12.25V19.09H8.75Z" fill="#38374B"/>
</svg>
