<svg width="20" height="21" viewBox="0 0 20 21" fill="none" xmlns="http://www.w3.org/2000/svg">
<g clip-path="url(#clip0_509_71)">
<path fill-rule="evenodd" clip-rule="evenodd" d="M14.1667 1.75667C14.1667 1.29643 13.7936 0.923332 13.3334 0.923332C12.8731 0.923332 12.5 1.29643 12.5 1.75667V2.59H7.50002V1.75667C7.50002 1.29643 7.12692 0.923332 6.66669 0.923332C6.20645 0.923332 5.83335 1.29643 5.83335 1.75667V2.59H4.16669C2.78598 2.59 1.66669 3.70929 1.66669 5.09V16.7567C1.66669 18.1374 2.78598 19.2567 4.16669 19.2567H15.8334C17.2141 19.2567 18.3334 18.1374 18.3334 16.7567V5.09C18.3334 3.70929 17.2141 2.59 15.8334 2.59H14.1667V1.75667ZM16.6667 7.59V5.09C16.6667 4.62976 16.2936 4.25667 15.8334 4.25667H14.1667V5.09C14.1667 5.55024 13.7936 5.92333 13.3334 5.92333C12.8731 5.92333 12.5 5.55024 12.5 5.09V4.25667H7.50002V5.09C7.50002 5.55024 7.12692 5.92333 6.66669 5.92333C6.20645 5.92333 5.83335 5.55024 5.83335 5.09V4.25667H4.16669C3.70645 4.25667 3.33335 4.62976 3.33335 5.09V7.59H16.6667ZM3.33335 9.25666H16.6667V16.7567C16.6667 17.2169 16.2936 17.59 15.8334 17.59H4.16669C3.70645 17.59 3.33335 17.2169 3.33335 16.7567V9.25666Z" fill="#38374B"/>
</g>
<defs>
<clipPath id="clip0_509_71">
<rect width="20" height="20" fill="white" transform="translate(0 0.0899963)"/>
</clipPath>
</defs>
</svg>
