<svg width="11" height="12" viewBox="0 0 11 12" fill="none" xmlns="http://www.w3.org/2000/svg">
<g clip-path="url(#clip0_92_495)">
<path fill-rule="evenodd" clip-rule="evenodd" d="M0.458374 5.53534C0.458374 2.75091 2.71561 0.493675 5.50004 0.493675C8.28448 0.493675 10.5417 2.75091 10.5417 5.53534C10.5417 8.31978 8.28448 10.577 5.50004 10.577C2.71561 10.577 0.458374 8.31978 0.458374 5.53534ZM5.95837 9.63517V8.28534C5.95837 8.03221 5.75317 7.82701 5.50004 7.82701C5.24691 7.82701 5.04171 8.03221 5.04171 8.28534V9.63517C3.12972 9.42381 1.61158 7.90567 1.40022 5.99368H2.75004C3.00317 5.99368 3.20837 5.78847 3.20837 5.53534C3.20837 5.28221 3.00317 5.07701 2.75004 5.07701H1.40022C1.61158 3.16502 3.12972 1.64688 5.04171 1.43552V2.78534C5.04171 3.03847 5.24691 3.24368 5.50004 3.24368C5.75317 3.24368 5.95837 3.03847 5.95837 2.78534V1.43552C7.87037 1.64688 9.38851 3.16502 9.59987 5.07701H8.25004C7.99691 5.07701 7.79171 5.28221 7.79171 5.53534C7.79171 5.78847 7.99691 5.99368 8.25004 5.99368H9.59987C9.38851 7.90567 7.87037 9.42381 5.95837 9.63517Z" fill="#9292A0"/>
</g>
<defs>
<clipPath id="clip0_92_495">
<rect width="11" height="11" fill="white" transform="translate(0 0.0353394)"/>
</clipPath>
</defs>
</svg>
