<svg width="16" height="16" viewBox="0 0 16 16" fill="none" xmlns="http://www.w3.org/2000/svg">
<path fill-rule="evenodd" clip-rule="evenodd" d="M7.00879 3.57501C5.79585 2.36207 3.82927 2.36207 2.61633 3.57501C1.40339 4.78795 1.40339 6.75453 2.61633 7.96747L3.13614 8.48727C3.14463 8.49577 3.15288 8.50447 3.16086 8.51337L8 13.3525L12.8389 8.51358C12.847 8.50464 12.8553 8.49587 12.8639 8.48727L13.3837 7.96747C14.5966 6.75453 14.5966 4.78795 13.3837 3.57501C12.1707 2.36207 10.2042 2.36207 8.99121 3.57501L8.4714 4.09482C8.21105 4.35517 7.78894 4.35517 7.52859 4.09482L7.00879 3.57501ZM13.8323 9.40446C13.8243 9.4134 13.816 9.42217 13.8074 9.43077L8.47209 14.766C8.34703 14.8911 8.17739 14.9613 8.00053 14.9613C8.00035 14.9613 8.00071 14.9613 8.00053 14.9613C8.00035 14.9613 7.99964 14.9613 7.99947 14.9613C7.8226 14.9613 7.65297 14.8911 7.52791 14.766L2.19264 9.43077C2.18404 9.42217 2.17573 9.41339 2.1677 9.40446L1.67352 8.91028C-0.0601184 7.17664 -0.0601209 4.36585 1.67352 2.6322C3.40716 0.89856 6.21796 0.89856 7.9516 2.6322L8 2.6806L8.0484 2.6322C9.78204 0.898559 12.5928 0.89856 14.3265 2.6322C16.0601 4.36585 16.0601 7.17664 14.3265 8.91028L13.8323 9.40446Z" fill="#838393"/>
</svg>
