<svg width="20" height="21" viewBox="0 0 20 21" fill="none" xmlns="http://www.w3.org/2000/svg">
<g clip-path="url(#clip0_92_398)">
<path d="M10.8333 5.03533C10.8333 4.5751 10.4602 4.202 9.99998 4.202C9.53974 4.202 9.16665 4.5751 9.16665 5.03533V10.0353C9.16665 10.351 9.34498 10.6395 9.6273 10.7807L12.9606 12.4474C13.3723 12.6532 13.8728 12.4863 14.0787 12.0747C14.2845 11.663 14.1176 11.1625 13.706 10.9566L10.8333 9.5203V5.03533Z" fill="#838393"/>
<path fill-rule="evenodd" clip-rule="evenodd" d="M9.99998 0.868668C4.93737 0.868668 0.833313 4.97272 0.833313 10.0353C0.833313 15.0979 4.93737 19.202 9.99998 19.202C15.0626 19.202 19.1666 15.0979 19.1666 10.0353C19.1666 4.97272 15.0626 0.868668 9.99998 0.868668ZM2.49998 10.0353C2.49998 5.8932 5.85784 2.53533 9.99998 2.53533C14.1421 2.53533 17.5 5.8932 17.5 10.0353C17.5 14.1775 14.1421 17.5353 9.99998 17.5353C5.85784 17.5353 2.49998 14.1775 2.49998 10.0353Z" fill="#838393"/>
</g>
<defs>
<clipPath id="clip0_92_398">
<rect width="20" height="20" fill="white" transform="translate(0 0.0353394)"/>
</clipPath>
</defs>
</svg>
