<svg width="14" height="15" viewBox="0 0 14 15" fill="none" xmlns="http://www.w3.org/2000/svg">
<path fill-rule="evenodd" clip-rule="evenodd" d="M10.5 1.59589C10.0171 1.59589 9.55395 1.78772 9.21249 2.12918L1.92083 9.42084C1.84607 9.4956 1.79303 9.58927 1.76739 9.69184L1.18406 12.0252C1.13436 12.224 1.1926 12.4342 1.33749 12.5791C1.48238 12.724 1.69267 12.7823 1.89145 12.7326L4.22478 12.1492C4.32735 12.1236 4.42102 12.0706 4.49578 11.9958L11.7875 4.70414C11.9565 4.53506 12.0906 4.33434 12.1821 4.11343C12.2736 3.89253 12.3207 3.65576 12.3207 3.41666C12.3207 3.17755 12.2736 2.94078 12.1821 2.71988C12.0906 2.49897 11.9565 2.29825 11.7875 2.12918C11.6184 1.9601 11.4177 1.82599 11.1967 1.73448C10.9758 1.64298 10.7391 1.59589 10.5 1.59589ZM10.0375 2.95414C10.1601 2.83147 10.3265 2.76255 10.5 2.76255C10.5859 2.76255 10.6709 2.77947 10.7503 2.81234C10.8296 2.84522 10.9018 2.8934 10.9625 2.95414C11.0232 3.01487 11.0714 3.08698 11.1043 3.16634C11.1372 3.2457 11.1541 3.33076 11.1541 3.41666C11.1541 3.50255 11.1372 3.58761 11.1043 3.66697C11.0714 3.74633 11.0232 3.81844 10.9625 3.87918L3.78508 11.0566L2.55169 11.3649L2.86003 10.1316L10.0375 2.95414Z" fill="#3C3B56"/>
<path d="M6.99997 11.5833C6.6778 11.5833 6.41664 11.8445 6.41664 12.1667C6.41664 12.4888 6.6778 12.75 6.99997 12.75H12.25C12.5721 12.75 12.8333 12.4888 12.8333 12.1667C12.8333 11.8445 12.5721 11.5833 12.25 11.5833H6.99997Z" fill="#3C3B56"/>
</svg>
