<svg width="20" height="20" viewBox="0 0 20 20" fill="none" xmlns="http://www.w3.org/2000/svg">
<path d="M10.8333 4.16665C10.8333 3.70641 10.4602 3.33331 9.99998 3.33331C9.53974 3.33331 9.16665 3.70641 9.16665 4.16665V9.16665H4.16665C3.70641 9.16665 3.33331 9.53974 3.33331 9.99998C3.33331 10.4602 3.70641 10.8333 4.16665 10.8333H9.16665V15.8333C9.16665 16.2936 9.53974 16.6666 9.99998 16.6666C10.4602 16.6666 10.8333 16.2936 10.8333 15.8333V10.8333H15.8333C16.2936 10.8333 16.6666 10.4602 16.6666 9.99998C16.6666 9.53974 16.2936 9.16665 15.8333 9.16665H10.8333V4.16665Z" fill="#343344"/>
</svg>
