<svg width="16" height="16" viewBox="0 0 16 16" fill="none" xmlns="http://www.w3.org/2000/svg">
<path d="M8.66675 3.625C8.66675 3.27982 8.36827 3 8.00008 3C7.63189 3 7.33341 3.27982 7.33341 3.625V7.375H3.33341C2.96522 7.375 2.66675 7.65482 2.66675 8C2.66675 8.34518 2.96522 8.625 3.33341 8.625H7.33341V12.375C7.33341 12.7202 7.63189 13 8.00008 13C8.36827 13 8.66675 12.7202 8.66675 12.375V8.625H12.6667C13.0349 8.625 13.3334 8.34518 13.3334 8C13.3334 7.65482 13.0349 7.375 12.6667 7.375H8.66675V3.625Z" fill="white"/>
</svg>
