<svg width="20" height="21" viewBox="0 0 20 21" fill="none" xmlns="http://www.w3.org/2000/svg">
<g clip-path="url(#clip0_147_982)">
<path fill-rule="evenodd" clip-rule="evenodd" d="M14.1667 1.70211C14.1667 1.24187 13.7936 0.868774 13.3333 0.868774C12.8731 0.868774 12.5 1.24187 12.5 1.70211V2.53544H7.49999V1.70211C7.49999 1.24187 7.12689 0.868774 6.66666 0.868774C6.20642 0.868774 5.83332 1.24187 5.83332 1.70211V2.53544H4.16666C2.78594 2.53544 1.66666 3.65473 1.66666 5.03544V16.7021C1.66666 18.0828 2.78594 19.2021 4.16666 19.2021H15.8333C17.214 19.2021 18.3333 18.0828 18.3333 16.7021V5.03544C18.3333 3.65473 17.214 2.53544 15.8333 2.53544H14.1667V1.70211ZM16.6667 7.53544V5.03544C16.6667 4.5752 16.2936 4.20211 15.8333 4.20211H14.1667V5.03544C14.1667 5.49568 13.7936 5.86877 13.3333 5.86877C12.8731 5.86877 12.5 5.49568 12.5 5.03544V4.20211H7.49999V5.03544C7.49999 5.49568 7.12689 5.86877 6.66666 5.86877C6.20642 5.86877 5.83332 5.49568 5.83332 5.03544V4.20211H4.16666C3.70642 4.20211 3.33332 4.5752 3.33332 5.03544V7.53544H16.6667ZM3.33332 9.20211H16.6667V16.7021C16.6667 17.1623 16.2936 17.5354 15.8333 17.5354H4.16666C3.70642 17.5354 3.33332 17.1623 3.33332 16.7021V9.20211Z" fill="white"/>
</g>
<defs>
<clipPath id="clip0_147_982">
<rect width="20" height="20" fill="white" transform="translate(0 0.0354004)"/>
</clipPath>
</defs>
</svg>
