<svg width="20" height="21" viewBox="0 0 20 21" fill="none" xmlns="http://www.w3.org/2000/svg">
<g clip-path="url(#clip0_121_81)">
<path fill-rule="evenodd" clip-rule="evenodd" d="M9.99998 7.53532C8.61927 7.53532 7.49998 8.65461 7.49998 10.0353C7.49998 11.416 8.61927 12.5353 9.99998 12.5353C11.3807 12.5353 12.5 11.416 12.5 10.0353C12.5 8.65461 11.3807 7.53532 9.99998 7.53532ZM9.16665 10.0353C9.16665 9.57508 9.53974 9.20198 9.99998 9.20198C10.4602 9.20198 10.8333 9.57508 10.8333 10.0353C10.8333 10.4956 10.4602 10.8687 9.99998 10.8687C9.53974 10.8687 9.16665 10.4956 9.16665 10.0353Z" fill="white"/>
<path fill-rule="evenodd" clip-rule="evenodd" d="M4.16665 10.0353C4.16665 6.81366 6.77832 4.20199 9.99998 4.20199C13.2216 4.20199 15.8333 6.81366 15.8333 10.0353C15.8333 13.257 13.2216 15.8687 9.99998 15.8687C6.77832 15.8687 4.16665 13.257 4.16665 10.0353ZM9.99998 5.86865C7.69879 5.86865 5.83331 7.73413 5.83331 10.0353C5.83331 12.3365 7.69879 14.202 9.99998 14.202C12.3012 14.202 14.1666 12.3365 14.1666 10.0353C14.1666 7.73413 12.3012 5.86865 9.99998 5.86865Z" fill="white"/>
<path fill-rule="evenodd" clip-rule="evenodd" d="M0.833313 10.0353C0.833313 4.97271 4.93737 0.868652 9.99998 0.868652C15.0626 0.868652 19.1666 4.97271 19.1666 10.0353C19.1666 15.0979 15.0626 19.202 9.99998 19.202C4.93737 19.202 0.833313 15.0979 0.833313 10.0353ZM9.99998 2.53532C5.85784 2.53532 2.49998 5.89318 2.49998 10.0353C2.49998 14.1775 5.85784 17.5353 9.99998 17.5353C14.1421 17.5353 17.5 14.1775 17.5 10.0353C17.5 5.89318 14.1421 2.53532 9.99998 2.53532Z" fill="white"/>
</g>
<defs>
<clipPath id="clip0_121_81">
<rect width="20" height="20" fill="white" transform="translate(0 0.0353394)"/>
</clipPath>
</defs>
</svg>
