<svg width="20" height="21" viewBox="0 0 20 21" fill="none" xmlns="http://www.w3.org/2000/svg">
<g clip-path="url(#clip0_509_73)">
<path d="M10.8333 5.92333C10.8333 5.46309 10.4602 5.09 9.99998 5.09C9.53974 5.09 9.16665 5.46309 9.16665 5.92333V10.9233C9.16665 11.239 9.34498 11.5275 9.6273 11.6687L12.9606 13.3354C13.3723 13.5412 13.8728 13.3743 14.0787 12.9627C14.2845 12.551 14.1176 12.0505 13.706 11.8446L10.8333 10.4083V5.92333Z" fill="#38374B"/>
<path fill-rule="evenodd" clip-rule="evenodd" d="M9.99998 1.75666C4.93737 1.75666 0.833313 5.86072 0.833313 10.9233C0.833313 15.9859 4.93737 20.09 9.99998 20.09C15.0626 20.09 19.1666 15.9859 19.1666 10.9233C19.1666 5.86072 15.0626 1.75666 9.99998 1.75666ZM2.49998 10.9233C2.49998 6.78119 5.85784 3.42333 9.99998 3.42333C14.1421 3.42333 17.5 6.78119 17.5 10.9233C17.5 15.0655 14.1421 18.4233 9.99998 18.4233C5.85784 18.4233 2.49998 15.0655 2.49998 10.9233Z" fill="#38374B"/>
</g>
<defs>
<clipPath id="clip0_509_73">
<rect width="20" height="20" fill="white" transform="translate(0 0.92333)"/>
</clipPath>
</defs>
</svg>
