<svg width="16" height="17" viewBox="0 0 16 17" fill="none" xmlns="http://www.w3.org/2000/svg">
<g clip-path="url(#clip0_147_578)">
<path fill-rule="evenodd" clip-rule="evenodd" d="M1.13807 1.12239C0.877722 0.862037 0.455612 0.862037 0.195262 1.12239C-0.0650874 1.38274 -0.0650874 1.80485 0.195262 2.0652L3.04565 4.91559C1.8398 5.95357 0.833571 7.20613 0.0792296 8.61191C-0.023193 8.80279 -0.0264924 9.03152 0.070382 9.22527L0.666667 8.92713C0.070382 9.22527 0.0709135 9.22633 0.0709135 9.22633L0.0716927 9.22788L0.0739934 9.23244L0.0815587 9.24725C0.0879169 9.25961 0.0969046 9.27692 0.108502 9.29884C0.131693 9.34266 0.165349 9.40498 0.209314 9.48314C0.297195 9.63937 0.426567 9.85945 0.596224 10.1221C0.93471 10.6463 1.43789 11.3467 2.09698 12.0498C3.40299 13.4428 5.40033 14.9271 8 14.9271L8.0109 14.927C9.38985 14.9045 10.7308 14.4962 11.8841 13.754L14.8619 16.7319C15.1223 16.9922 15.5444 16.9922 15.8047 16.7319C16.0651 16.4715 16.0651 16.0494 15.8047 15.7891L1.13807 1.12239ZM1.42838 8.92924C2.09956 7.7659 2.96688 6.72804 3.9914 5.86134L5.69069 7.56063C5.62435 7.66647 5.56537 7.77707 5.5143 7.8917C5.36855 8.2188 5.29018 8.57192 5.28386 8.92997C5.27754 9.28803 5.34341 9.64369 5.47753 9.97573C5.61165 10.3078 5.81127 10.6094 6.06449 10.8626C6.31772 11.1159 6.61935 11.3155 6.95139 11.4496C7.28344 11.5837 7.6391 11.6496 7.99715 11.6433C8.35521 11.637 8.70832 11.5586 9.03543 11.4128C9.15005 11.3618 9.26066 11.3028 9.3665 11.2364L10.9143 12.7842C10.0291 13.2954 9.02487 13.576 7.99456 13.5938C5.93008 13.5917 4.26263 12.4103 3.06969 11.1378C2.47878 10.5075 2.02362 9.87467 1.71628 9.39878C1.59728 9.21453 1.5011 9.05483 1.42838 8.92924ZM6.61699 8.9535C6.61938 8.81778 6.64248 8.68349 6.68526 8.5552L8.37193 10.2419C8.24364 10.2847 8.10935 10.3077 7.97363 10.3101C7.79461 10.3133 7.61678 10.2804 7.45075 10.2133C7.28473 10.1463 7.13391 10.0464 7.0073 9.91983C6.88069 9.79322 6.78088 9.6424 6.71382 9.47638C6.64676 9.31035 6.61383 9.13252 6.61699 8.9535Z" fill="#838393"/>
<path d="M14.5633 8.94051C12.6811 5.8376 10.177 3.7515 6.76587 4.37526C6.40368 4.44149 6.05639 4.20157 5.99016 3.83938C5.92393 3.4772 6.16385 3.1299 6.52603 3.06367C10.8953 2.26472 13.8929 5.14399 15.8784 8.54309C16.0186 8.74248 16.0439 9.01176 15.9212 9.24141C15.4946 10.0394 14.9859 10.7907 14.4033 11.483C14.1663 11.7648 13.7457 11.801 13.464 11.5639C13.1823 11.3268 13.1461 10.9063 13.3831 10.6246C13.8255 10.0989 14.2204 9.5353 14.5633 8.94051Z" fill="#838393"/>
</g>
<defs>
<clipPath id="clip0_147_578">
<rect width="16" height="16" fill="white" transform="translate(0 0.927124)"/>
</clipPath>
</defs>
</svg>
