<svg width="20" height="21" viewBox="0 0 20 21" fill="none" xmlns="http://www.w3.org/2000/svg">
<g clip-path="url(#clip0_509_69)">
<path fill-rule="evenodd" clip-rule="evenodd" d="M9.99998 8.42332C8.61927 8.42332 7.49998 9.54261 7.49998 10.9233C7.49998 12.304 8.61927 13.4233 9.99998 13.4233C11.3807 13.4233 12.5 12.304 12.5 10.9233C12.5 9.54261 11.3807 8.42332 9.99998 8.42332ZM9.16665 10.9233C9.16665 10.4631 9.53974 10.09 9.99998 10.09C10.4602 10.09 10.8333 10.4631 10.8333 10.9233C10.8333 11.3836 10.4602 11.7567 9.99998 11.7567C9.53974 11.7567 9.16665 11.3836 9.16665 10.9233Z" fill="#38374B"/>
<path fill-rule="evenodd" clip-rule="evenodd" d="M4.16665 10.9233C4.16665 7.70166 6.77832 5.08999 9.99998 5.08999C13.2216 5.08999 15.8333 7.70166 15.8333 10.9233C15.8333 14.145 13.2216 16.7567 9.99998 16.7567C6.77832 16.7567 4.16665 14.145 4.16665 10.9233ZM9.99998 6.75665C7.69879 6.75665 5.83331 8.62213 5.83331 10.9233C5.83331 13.2245 7.69879 15.09 9.99998 15.09C12.3012 15.09 14.1666 13.2245 14.1666 10.9233C14.1666 8.62213 12.3012 6.75665 9.99998 6.75665Z" fill="#38374B"/>
<path fill-rule="evenodd" clip-rule="evenodd" d="M0.833313 10.9233C0.833313 5.86071 4.93737 1.75665 9.99998 1.75665C15.0626 1.75665 19.1666 5.86071 19.1666 10.9233C19.1666 15.9859 15.0626 20.09 9.99998 20.09C4.93737 20.09 0.833313 15.9859 0.833313 10.9233ZM9.99998 3.42332C5.85784 3.42332 2.49998 6.78118 2.49998 10.9233C2.49998 15.0655 5.85784 18.4233 9.99998 18.4233C14.1421 18.4233 17.5 15.0655 17.5 10.9233C17.5 6.78118 14.1421 3.42332 9.99998 3.42332Z" fill="#38374B"/>
</g>
<defs>
<clipPath id="clip0_509_69">
<rect width="20" height="20" fill="white" transform="translate(0 0.923325)"/>
</clipPath>
</defs>
</svg>
