<svg width="14" height="15" viewBox="0 0 14 15" fill="none" xmlns="http://www.w3.org/2000/svg">
<path fill-rule="evenodd" clip-rule="evenodd" d="M10.5001 1.59589C10.0172 1.59589 9.55407 1.78772 9.21261 2.12918L1.92095 9.42084C1.84619 9.4956 1.79315 9.58927 1.76751 9.69184L1.18418 12.0252C1.13448 12.224 1.19273 12.4342 1.33761 12.5791C1.4825 12.724 1.69279 12.7823 1.89157 12.7326L4.22491 12.1492C4.32747 12.1236 4.42115 12.0706 4.49591 11.9958L11.7876 4.70414C11.9566 4.53506 12.0908 4.33434 12.1823 4.11343C12.2738 3.89253 12.3209 3.65576 12.3209 3.41666C12.3209 3.17755 12.2738 2.94078 12.1823 2.71988C12.0908 2.49897 11.9566 2.29825 11.7876 2.12918C11.6185 1.9601 11.4178 1.82599 11.1969 1.73448C10.976 1.64298 10.7392 1.59589 10.5001 1.59589ZM10.0376 2.95414C10.1602 2.83147 10.3266 2.76255 10.5001 2.76255C10.586 2.76255 10.671 2.77947 10.7504 2.81234C10.8298 2.84522 10.9019 2.8934 10.9626 2.95414C11.0234 3.01487 11.0715 3.08698 11.1044 3.16634C11.1373 3.2457 11.1542 3.33076 11.1542 3.41666C11.1542 3.50255 11.1373 3.58761 11.1044 3.66697C11.0715 3.74633 11.0234 3.81844 10.9626 3.87918L3.7852 11.0566L2.55181 11.3649L2.86016 10.1316L10.0376 2.95414Z" fill="white"/>
<path d="M7.00009 11.5833C6.67793 11.5833 6.41676 11.8445 6.41676 12.1667C6.41676 12.4888 6.67793 12.75 7.00009 12.75H12.2501C12.5723 12.75 12.8334 12.4888 12.8334 12.1667C12.8334 11.8445 12.5723 11.5833 12.2501 11.5833H7.00009Z" fill="white"/>
</svg>
