<svg width="21" height="21" viewBox="0 0 21 21" fill="none" xmlns="http://www.w3.org/2000/svg">
<g clip-path="url(#clip0_509_67)">
<path fill-rule="evenodd" clip-rule="evenodd" d="M10.5 7C8.567 7 7 8.567 7 10.5C7 12.433 8.567 14 10.5 14C12.433 14 14 12.433 14 10.5C14 8.567 12.433 7 10.5 7ZM8.75 10.5C8.75 9.5335 9.5335 8.75 10.5 8.75C11.4665 8.75 12.25 9.5335 12.25 10.5C12.25 11.4665 11.4665 12.25 10.5 12.25C9.5335 12.25 8.75 11.4665 8.75 10.5Z" fill="#38374B"/>
<path fill-rule="evenodd" clip-rule="evenodd" d="M17.7755 13.4783L16.975 13.125L17.7792 13.4697C17.8229 13.3677 17.8955 13.2808 17.988 13.2195C18.0801 13.1585 18.188 13.1257 18.2984 13.125H18.375C19.0712 13.125 19.7389 12.8484 20.2312 12.3562C20.7234 11.8639 21 11.1962 21 10.5C21 9.80381 20.7234 9.13613 20.2312 8.64385C19.7389 8.15156 19.0712 7.875 18.375 7.875H18.2284C18.118 7.87431 18.0101 7.84146 17.918 7.78045C17.8559 7.73936 17.8028 7.68669 17.7614 7.62568C17.7489 7.56606 17.7302 7.50774 17.7055 7.45171C17.6596 7.34774 17.6459 7.23241 17.6662 7.12059C17.6863 7.00999 17.7386 6.90784 17.8167 6.82702L17.8646 6.77906C18.1085 6.53534 18.3024 6.24561 18.4344 5.92709C18.5665 5.60842 18.6345 5.26684 18.6345 4.92188C18.6345 4.57691 18.5665 4.23533 18.4344 3.91666C18.3024 3.59829 18.1091 3.30902 17.8653 3.06538C17.6215 2.82131 17.332 2.6277 17.0133 2.49559C16.6947 2.36349 16.3531 2.2955 16.0081 2.2955C15.6632 2.2955 15.3216 2.36349 15.0029 2.49559C14.6842 2.62769 14.3947 2.82131 14.1509 3.06538L14.103 3.11335C14.0221 3.19137 13.92 3.24374 13.8094 3.26379C13.6976 3.28407 13.5823 3.27038 13.4783 3.2245L13.4697 3.22075C13.3677 3.17706 13.2808 3.10451 13.2195 3.01203C13.1585 2.91991 13.1257 2.81203 13.125 2.70156V2.625C13.125 1.92881 12.8484 1.26113 12.3562 0.768845C11.8639 0.276562 11.1962 0 10.5 0C9.80381 0 9.13613 0.276562 8.64385 0.768845C8.15156 1.26113 7.875 1.92881 7.875 2.625V2.77156C7.87431 2.88203 7.84146 2.98991 7.78045 3.08203C7.73936 3.14408 7.68669 3.19716 7.62569 3.23857C7.56606 3.25105 7.50774 3.26976 7.45171 3.2945C7.34774 3.34038 7.23241 3.35407 7.12059 3.33379C7.00999 3.31374 6.90785 3.26137 6.82702 3.18333L6.77906 3.13538C6.53527 2.89131 6.24576 2.6977 5.92709 2.56559C5.60842 2.43349 5.26684 2.3655 4.92188 2.3655C4.57691 2.3655 4.23533 2.43349 3.91666 2.56559C3.59814 2.69763 3.30875 2.89113 3.06503 3.13503C2.82113 3.37875 2.62763 3.66814 2.49559 3.98666C2.36349 4.30533 2.2955 4.64691 2.2955 4.99187C2.2955 5.33684 2.36349 5.67842 2.49559 5.99709C2.6277 6.31576 2.82131 6.60527 3.06538 6.84906L3.11333 6.89702C3.19137 6.97784 3.24374 7.07999 3.26379 7.19059C3.28407 7.30241 3.27038 7.41774 3.2245 7.52171C3.21705 7.53857 3.21014 7.55567 3.20378 7.57297C3.16439 7.68008 3.09368 7.77286 3.00086 7.83925C2.91018 7.90411 2.80248 7.94085 2.69118 7.945H2.625C1.92881 7.945 1.26113 8.22156 0.768845 8.71385C0.276562 9.20613 0 9.87381 0 10.57C0 11.2662 0.276562 11.9339 0.768845 12.4262C1.26113 12.9184 1.92881 13.195 2.625 13.195H2.77156C2.88203 13.1957 2.98991 13.2285 3.08203 13.2895C3.17451 13.3508 3.24706 13.4377 3.29075 13.5397L3.2945 13.5483C3.34038 13.6523 3.35407 13.7676 3.33379 13.8794C3.31374 13.99 3.26137 14.0921 3.18335 14.173L3.13538 14.2209C2.89131 14.4647 2.69769 14.7542 2.56559 15.0729C2.43349 15.3916 2.3655 15.7332 2.3655 16.0781C2.3655 16.4231 2.43349 16.7647 2.56559 17.0833C2.69769 17.402 2.89131 17.6915 3.13538 17.9353C3.37903 18.1791 3.66829 18.3724 3.98666 18.5044C4.30533 18.6365 4.64691 18.7045 4.99187 18.7045C5.33684 18.7045 5.67842 18.6365 5.99709 18.5044C6.31561 18.3724 6.605 18.1789 6.84873 17.935L6.89701 17.8867C6.97784 17.8086 7.07999 17.7563 7.19059 17.7362C7.30241 17.7159 7.41774 17.7296 7.52171 17.7755C7.53857 17.7829 7.55567 17.7899 7.57297 17.7962C7.68008 17.8356 7.77286 17.9063 7.83925 17.9991C7.90411 18.0898 7.94085 18.1975 7.945 18.3088V18.375C7.945 19.0712 8.22156 19.7389 8.71385 20.2312C9.20613 20.7234 9.87381 21 10.57 21C11.2662 21 11.9339 20.7234 12.4262 20.2312C12.9184 19.7389 13.195 19.0712 13.195 18.375V18.2284C13.1957 18.118 13.2285 18.0101 13.2895 17.918C13.3508 17.8255 13.4377 17.7529 13.5397 17.7092L13.5483 17.7055C13.6523 17.6596 13.7676 17.6459 13.8794 17.6662C13.99 17.6863 14.0921 17.7386 14.173 17.8166L14.2209 17.8646C14.4647 18.1085 14.7544 18.3024 15.0729 18.4344C15.3916 18.5665 15.7332 18.6345 16.0781 18.6345C16.4231 18.6345 16.7647 18.5665 17.0833 18.4344C17.4019 18.3024 17.6912 18.1089 17.935 17.865C18.1789 17.6212 18.3724 17.3319 18.5044 17.0133C18.6365 16.6947 18.7045 16.3531 18.7045 16.0081C18.7045 15.6632 18.6365 15.3216 18.5044 15.0029C18.3724 14.6844 18.1789 14.395 17.935 14.1513L17.8866 14.103C17.8086 14.0221 17.7563 13.92 17.7362 13.8094C17.7159 13.6976 17.7296 13.5823 17.7755 13.4783ZM9.88128 2.00628C10.0454 1.84219 10.2679 1.75 10.5 1.75C10.7321 1.75 10.9546 1.84219 11.1187 2.00628C11.2828 2.17038 11.375 2.39294 11.375 2.625V2.70375L11.375 2.70724C11.3768 3.15945 11.5108 3.60126 11.7605 3.97829C12.0093 4.35401 12.3622 4.64905 12.776 4.82739C13.1987 5.01295 13.6673 5.0681 14.1216 4.98572C14.5775 4.90306 14.9982 4.68573 15.3294 4.36175L15.3362 4.35497L15.3887 4.30247C15.47 4.22111 15.5668 4.15623 15.6731 4.1122C15.7793 4.06816 15.8931 4.0455 16.0081 4.0455C16.1231 4.0455 16.237 4.06816 16.3432 4.1122C16.4494 4.15623 16.5459 4.22077 16.6272 4.30212L16.6279 4.30281C16.7092 4.38408 16.7738 4.48058 16.8178 4.5868C16.8618 4.69303 16.8845 4.80689 16.8845 4.92188C16.8845 5.03686 16.8618 5.15072 16.8178 5.25695C16.7738 5.36317 16.7092 5.45967 16.6279 5.54094L16.575 5.59378L16.5682 5.60064C16.2443 5.93184 16.0269 6.3525 15.9443 6.80838C15.8725 7.20416 15.9051 7.61073 16.0374 7.98841C16.0478 8.06787 16.069 8.1457 16.1008 8.21969C16.2789 8.63534 16.5747 8.98982 16.9517 9.23951C17.3287 9.4892 17.7706 9.62319 18.2228 9.62499L18.2262 9.625H18.375C18.6071 9.625 18.8296 9.71719 18.9937 9.88128C19.1578 10.0454 19.25 10.2679 19.25 10.5C19.25 10.7321 19.1578 10.9546 18.9937 11.1187C18.8296 11.2828 18.6071 11.375 18.375 11.375L18.2962 11.375L18.2928 11.375C17.8406 11.3768 17.3987 11.5108 17.0217 11.7605C16.646 12.0093 16.3509 12.3623 16.1726 12.7761C15.987 13.1988 15.9319 13.6673 16.0143 14.1216C16.0969 14.5775 16.3143 14.9982 16.6382 15.3294L16.645 15.3362L16.6975 15.3887C16.7789 15.47 16.8438 15.5668 16.8878 15.6731C16.9318 15.7793 16.9545 15.8931 16.9545 16.0081C16.9545 16.1231 16.9318 16.237 16.8878 16.3432C16.8438 16.4494 16.7792 16.5459 16.6979 16.6272L16.6972 16.6279C16.6159 16.7092 16.5194 16.7738 16.4132 16.8178C16.307 16.8618 16.1931 16.8845 16.0781 16.8845C15.9631 16.8845 15.8493 16.8618 15.7431 16.8178C15.6368 16.7738 15.5403 16.7092 15.4591 16.6279L15.4062 16.575L15.3994 16.5682C15.0682 16.2443 14.6475 16.0269 14.1916 15.9443C13.7373 15.8619 13.2688 15.917 12.8461 16.1026C12.4323 16.2809 12.0793 16.576 11.8305 16.9517C11.5808 17.3287 11.4468 17.7706 11.445 18.2228L11.445 18.2262V18.375C11.445 18.6071 11.3528 18.8296 11.1887 18.9937C11.0246 19.1578 10.8021 19.25 10.57 19.25C10.3379 19.25 10.1154 19.1578 9.95128 18.9937C9.78719 18.8296 9.695 18.6071 9.695 18.375V18.2962L9.69476 18.2758C9.68388 17.8106 9.53332 17.3595 9.26265 16.9811C8.99734 16.6101 8.62866 16.3258 8.20292 16.1635C7.78571 15.9853 7.32517 15.9333 6.87838 16.0143C6.4225 16.0969 6.00184 16.3143 5.67064 16.6382L5.66377 16.645L5.61127 16.6975C5.53001 16.7789 5.43317 16.8438 5.32695 16.8878C5.22072 16.9318 5.10686 16.9545 4.99187 16.9545C4.87689 16.9545 4.76303 16.9318 4.6568 16.8878C4.55058 16.8438 4.45407 16.7792 4.37281 16.6979L4.37212 16.6972C4.29077 16.6159 4.22623 16.5194 4.1822 16.4132C4.13816 16.307 4.1155 16.1931 4.1155 16.0781C4.1155 15.9631 4.13816 15.8493 4.1822 15.7431C4.22623 15.6368 4.29077 15.5403 4.37212 15.4591L4.42497 15.4062L4.43175 15.3994C4.75573 15.0682 4.97306 14.6475 5.05572 14.1916C5.1381 13.7373 5.08295 13.2687 4.89739 12.846C4.71905 12.4322 4.42401 12.0793 4.04829 11.8305C3.67126 11.5808 3.22945 11.4468 2.77724 11.445L2.77375 11.445H2.625C2.39294 11.445 2.17038 11.3528 2.00628 11.1887C1.84219 11.0246 1.75 10.8021 1.75 10.57C1.75 10.3379 1.84219 10.1154 2.00628 9.95128C2.17038 9.78719 2.39294 9.695 2.625 9.695H2.70375L2.72421 9.69476C3.18936 9.68388 3.64048 9.53332 4.01892 9.26265C4.38986 8.99734 4.67415 8.62866 4.83652 8.20293C5.01474 7.78572 5.06673 7.32518 4.98572 6.87838C4.90306 6.4225 4.68573 6.00184 4.36175 5.67064L4.35497 5.66378L4.30247 5.61128C4.22111 5.53002 4.15623 5.43317 4.1122 5.32695C4.06816 5.22072 4.0455 5.10686 4.0455 4.99187C4.0455 4.87689 4.06816 4.76303 4.1122 4.6568C4.15623 4.55058 4.22077 4.45408 4.30212 4.37281L4.30281 4.37212C4.38408 4.29077 4.48058 4.22623 4.5868 4.1822C4.69303 4.13816 4.80689 4.1155 4.92188 4.1155C5.03686 4.1155 5.15072 4.13816 5.25695 4.1822C5.36317 4.22623 5.45967 4.29077 5.54094 4.37212L5.59378 4.42497L5.60064 4.43175C5.93184 4.75573 6.3525 4.97306 6.80838 5.05572C7.20416 5.12748 7.61073 5.09488 7.98841 4.96262C8.06787 4.95223 8.1457 4.93096 8.21969 4.89925C8.63534 4.72111 8.98982 4.42532 9.23951 4.04829C9.4892 3.67126 9.62319 3.22945 9.62499 2.77724L9.625 2.77375V2.625C9.625 2.39294 9.71719 2.17038 9.88128 2.00628Z" fill="#38374B"/>
</g>
<defs>
<clipPath id="clip0_509_67">
<rect width="21" height="21" fill="white"/>
</clipPath>
</defs>
</svg>
