<svg width="18" height="19" viewBox="0 0 18 19" fill="none" xmlns="http://www.w3.org/2000/svg">
<g clip-path="url(#clip0_92_427)">
<path d="M7.5 8.40533C7.91421 8.40533 8.25 8.74112 8.25 9.15533V13.6553C8.25 14.0695 7.91421 14.4053 7.5 14.4053C7.08579 14.4053 6.75 14.0695 6.75 13.6553V9.15533C6.75 8.74112 7.08579 8.40533 7.5 8.40533Z" fill="#838393"/>
<path d="M11.25 13.6553V9.15533C11.25 8.74112 10.9142 8.40533 10.5 8.40533C10.0858 8.40533 9.75 8.74112 9.75 9.15533V13.6553C9.75 14.0695 10.0858 14.4053 10.5 14.4053C10.9142 14.4053 11.25 14.0695 11.25 13.6553Z" fill="#838393"/>
<path fill-rule="evenodd" clip-rule="evenodd" d="M5.25 4.65533V3.90533C5.25 3.3086 5.48705 2.7363 5.90901 2.31434C6.33097 1.89239 6.90326 1.65533 7.5 1.65533H10.5C11.0967 1.65533 11.669 1.89239 12.091 2.31434C12.5129 2.7363 12.75 3.3086 12.75 3.90533V4.65533H15.75C16.1642 4.65533 16.5 4.99112 16.5 5.40533C16.5 5.81955 16.1642 6.15533 15.75 6.15533H15V15.9053C15 16.5021 14.7629 17.0744 14.341 17.4963C13.919 17.9183 13.3467 18.1553 12.75 18.1553H5.25C4.65326 18.1553 4.08097 17.9183 3.65901 17.4963C3.23705 17.0744 3 16.5021 3 15.9053V6.15533H2.25C1.83579 6.15533 1.5 5.81955 1.5 5.40533C1.5 4.99112 1.83579 4.65533 2.25 4.65533H5.25ZM6.96967 3.375C7.11032 3.23435 7.30109 3.15533 7.5 3.15533H10.5C10.6989 3.15533 10.8897 3.23435 11.0303 3.375C11.171 3.51566 11.25 3.70642 11.25 3.90533V4.65533H6.75V3.90533C6.75 3.70642 6.82902 3.51566 6.96967 3.375ZM4.5 6.15533V15.9053C4.5 16.1042 4.57902 16.295 4.71967 16.4357C4.86032 16.5763 5.05109 16.6553 5.25 16.6553H12.75C12.9489 16.6553 13.1397 16.5763 13.2803 16.4357C13.421 16.295 13.5 16.1042 13.5 15.9053V6.15533H4.5Z" fill="#838393"/>
</g>
<defs>
<clipPath id="clip0_92_427">
<rect width="18" height="18" fill="white" transform="translate(0 0.905334)"/>
</clipPath>
</defs>
</svg>
