<svg width="402" height="487" viewBox="0 0 402 487" fill="none" xmlns="http://www.w3.org/2000/svg">
<path d="M265.505 97.0499H41.9004L56.6153 402.2H280.22L265.505 97.0499Z" fill="#7771FF"/>
<path opacity="0.2" d="M265.505 97.0499H41.9004L56.6153 402.2H280.22L265.505 97.0499Z" fill="black"/>
<path d="M267.571 97.0499H43.9663L58.6909 402.2H282.295L267.571 97.0499Z" fill="#7771FF"/>
<path opacity="0.2" d="M255.766 107.314H54.1904L68.2748 388.407L243.554 388.174L272.683 362.299L255.766 107.314Z" fill="black"/>
<path d="M257.308 107.305C259.458 191.486 266.242 275.484 277.63 358.916C261.657 369.932 245.765 380.948 229.954 391.964H79.197C64.9675 297.691 56.6158 202.62 54.1904 107.305H257.308Z" fill="white"/>
<path d="M277.63 358.916C261.657 369.932 245.765 380.948 229.954 391.964C233.407 377.384 237.006 362.804 240.75 348.224L277.63 358.916Z" fill="#EBEBEB"/>
<path d="M108.85 133.024C109.231 143.314 109.678 153.611 110.188 163.914H79.3715C78.8542 153.611 78.408 143.314 78.0329 133.024H108.85ZM111.993 129.767H74.667C75.1003 142.228 75.6402 154.696 76.2869 167.17H113.622C112.976 154.702 112.436 142.235 112.002 129.767H111.993Z" fill="#7771FF"/>
<path d="M234.775 144.62H129.22C129.123 142.297 129.036 139.964 128.948 137.641H234.494C234.581 139.964 234.678 142.297 234.775 144.62Z" fill="#E0E0E0"/>
<path d="M212.475 159.297H129.87C129.763 156.964 129.647 154.641 129.55 152.318H212.145C212.255 154.644 212.365 156.97 212.475 159.297Z" fill="#E0E0E0"/>
<path d="M111.876 193.521C112.523 203.824 113.244 214.127 114.039 224.431H83.2125C82.4171 214.127 81.6961 203.824 81.0494 193.521H111.876ZM114.922 190.265H77.5962C78.3593 202.739 79.229 215.213 80.2055 227.687H117.58C116.61 215.219 115.737 202.745 114.961 190.265H114.922Z" fill="#7771FF"/>
<path d="M171.318 205.127H132.518C132.363 202.794 132.198 200.471 132.052 198.138H170.852C170.998 200.471 171.153 202.794 171.318 205.127Z" fill="#E0E0E0"/>
<path d="M208.052 205.127H179.524C179.369 202.794 179.204 200.471 179.059 198.138H207.586C207.732 200.471 207.887 202.794 208.052 205.127Z" fill="#E0E0E0"/>
<path d="M225.958 219.814H133.585C133.41 217.481 133.245 215.158 133.071 212.825H225.444C225.619 215.158 225.783 217.481 225.958 219.814Z" fill="#E0E0E0"/>
<path d="M116.503 254.047C117.428 264.351 118.423 274.654 119.49 284.957H88.6638C87.5968 274.654 86.601 264.351 85.6762 254.047H116.503ZM119.471 250.791H82.1357C83.2351 263.272 84.4379 275.749 85.7441 288.223H123.079C121.786 275.742 120.583 263.265 119.471 250.791Z" fill="#7771FF"/>
<path d="M243.777 273.361H138.212L138.91 280.34H244.475L243.777 273.361Z" fill="#E0E0E0"/>
<path d="M219.43 258.674H136.825C137.038 260.997 137.252 263.33 137.475 265.653H220.07C219.857 263.33 219.634 261.026 219.43 258.674Z" fill="#E0E0E0"/>
<path d="M122.74 314.574C123.943 324.877 125.214 335.177 126.552 345.474H95.7255C94.3869 335.183 93.1162 324.883 91.9134 314.574H122.74ZM125.65 311.318H88.2856C89.7083 323.798 91.2441 336.269 92.8931 348.73H130.19C128.554 336.269 127.018 323.798 125.582 311.318H125.65Z" fill="#7771FF"/>
<path d="M249.587 326.15H144.022C143.741 323.818 143.46 321.494 143.188 319.162H248.743C249.025 321.524 249.296 323.847 249.587 326.15Z" fill="#E0E0E0"/>
<path d="M193.909 340.857H145.855C145.555 338.534 145.264 336.201 144.973 333.878H193.026C193.317 336.201 193.608 338.534 193.909 340.857Z" fill="#E0E0E0"/>
<path d="M222.602 340.857H201.853C201.553 338.534 201.262 336.201 200.971 333.878H221.719C222.01 336.201 222.34 338.534 222.602 340.857Z" fill="#E0E0E0"/>
<path d="M95.2696 159.501L93.9019 157.324C90.9143 152.561 84.8227 148.313 82.7178 147.069L84.2892 144.279C88.4188 146.792 92.1086 149.968 95.2114 153.679C99.9062 147.273 106.851 140.654 116.357 133.539L118.365 136.163C108.219 143.774 101.119 150.743 96.6373 157.45L95.2696 159.501Z" fill="#7771FF"/>
<path d="M98.9559 220.018L97.53 217.84C94.426 213.078 88.218 208.82 86.084 207.576L87.5681 204.786C91.7764 207.3 95.5529 210.477 98.7522 214.195C103.272 207.78 110.033 201.161 119.355 194.036C120.044 194.911 120.742 195.786 121.431 196.67C111.488 204.291 104.572 211.25 100.275 217.967C99.8289 218.647 99.3924 219.337 98.9559 220.018Z" fill="#7771FF"/>
<path d="M104.31 280.7L102.826 278.522C99.5861 273.76 93.2617 269.502 91.0986 268.268C91.5642 267.296 92.0686 266.401 92.5148 265.478C96.7888 267.996 100.644 271.167 103.941 274.877C108.297 268.462 114.883 261.853 124.001 254.718L126.154 257.352C116.454 264.973 109.664 271.932 105.561 278.649L104.31 280.7Z" fill="#7771FF"/>
<path d="M202.096 375.197C196.373 375.197 193.075 373.078 190.165 371.212C187.255 369.346 184.752 367.732 179.922 367.732C175.091 367.732 172.938 369.424 170.658 371.212C168.379 373.001 165.585 375.197 159.862 375.197C154.139 375.197 150.841 373.078 147.941 371.212C145.04 369.346 142.538 367.732 137.698 367.732C132.857 367.732 130.714 369.424 128.434 371.212C126.155 373.001 123.361 375.197 117.648 375.197C111.934 375.197 108.627 373.078 105.717 371.212C102.807 369.346 100.314 367.732 95.4735 367.732C95.3474 366.76 95.2115 365.866 95.0854 364.933C100.808 364.933 104.097 367.052 107.007 368.918C109.917 370.785 112.41 372.398 117.24 372.398C122.071 372.398 124.224 370.707 126.504 368.918C128.783 367.13 131.587 364.933 137.31 364.933C143.033 364.933 146.311 367.052 149.221 368.918C152.131 370.785 154.634 372.398 159.464 372.398C164.295 372.398 166.448 370.707 168.728 368.918C171.007 367.13 173.811 364.933 179.534 364.933C185.257 364.933 188.545 367.052 191.455 368.918C194.365 370.785 196.858 372.398 201.698 372.398C201.824 373.331 201.97 374.264 202.096 375.197Z" fill="#EBEBEB"/>
<path d="M210.302 104.602C207.023 95.8543 199.448 90.1098 191.3 90.1098H174.693C173.457 90.099 172.251 89.7248 171.225 89.0337C170.199 88.3426 169.398 87.3649 168.922 86.2218C167.748 83.4281 165.785 81.039 163.274 79.3484C160.763 77.6578 157.814 76.7393 154.789 76.7059C151.863 76.6762 149.003 77.5831 146.627 79.2946C144.251 81.0062 142.482 83.433 141.578 86.2218C141.209 87.3629 140.486 88.3559 139.514 89.0554C138.541 89.755 137.371 90.1245 136.175 90.1098H119.578C111.42 90.1098 104.397 95.8835 101.972 104.602L101.002 108.072H211.582L210.302 104.602Z" fill="#263238"/>
<path d="M210.894 111.494H102.06C101.142 111.483 100.262 111.124 99.5978 110.489C98.9336 109.854 98.5342 108.991 98.4803 108.072C98.4565 107.631 98.523 107.19 98.6759 106.775C98.8287 106.361 99.0646 105.982 99.369 105.663C99.6735 105.343 100.04 105.089 100.446 104.917C100.852 104.745 101.289 104.657 101.73 104.661H210.564C211.48 104.671 212.359 105.029 213.022 105.662C213.686 106.295 214.087 107.156 214.143 108.072C214.168 108.514 214.103 108.957 213.951 109.372C213.798 109.788 213.563 110.168 213.258 110.489C212.954 110.809 212.587 111.064 212.18 111.237C211.773 111.41 211.335 111.497 210.894 111.494Z" fill="#7771FF"/>
<path opacity="0.2" d="M210.894 111.494H102.06C101.142 111.483 100.262 111.124 99.5978 110.489C98.9336 109.854 98.5342 108.991 98.4803 108.072C98.4565 107.631 98.523 107.19 98.6759 106.775C98.8287 106.361 99.0646 105.982 99.369 105.663C99.6735 105.343 100.04 105.089 100.446 104.917C100.852 104.745 101.289 104.657 101.73 104.661H210.564C211.48 104.671 212.359 105.029 213.022 105.662C213.686 106.295 214.087 107.156 214.143 108.072C214.168 108.514 214.103 108.957 213.951 109.372C213.798 109.788 213.563 110.168 213.258 110.489C212.954 110.809 212.587 111.064 212.18 111.237C211.773 111.41 211.335 111.497 210.894 111.494Z" fill="black"/>
<path d="M308.592 399.274H301.482L300.774 382.779H307.884L308.592 399.274Z" fill="#FFC3BD"/>
<path d="M351.263 399.274H344.153L340.583 382.779H347.683L351.263 399.274Z" fill="#FFC3BD"/>
<path d="M343.648 398.448H351.631C351.772 398.447 351.908 398.495 352.018 398.583C352.127 398.672 352.203 398.796 352.232 398.934L353.639 405.271C353.671 405.425 353.668 405.584 353.63 405.736C353.593 405.889 353.522 406.031 353.422 406.152C353.322 406.273 353.197 406.371 353.055 406.437C352.913 406.503 352.758 406.537 352.601 406.535C349.817 406.486 348.459 406.321 344.948 406.321C342.784 406.321 338.332 406.544 335.354 406.544C332.376 406.544 331.979 403.628 333.201 403.327C338.681 402.122 340.738 400.469 342.493 398.885C342.812 398.603 343.223 398.448 343.648 398.448Z" fill="#263238"/>
<path d="M301.531 398.448H309.291C309.431 398.447 309.568 398.495 309.678 398.583C309.787 398.672 309.863 398.796 309.892 398.934L311.298 405.271C311.333 405.42 311.334 405.574 311.302 405.723C311.27 405.872 311.205 406.012 311.112 406.133C311.019 406.254 310.901 406.353 310.765 406.422C310.63 406.492 310.481 406.53 310.328 406.535C307.525 406.486 303.48 406.321 299.959 406.321C295.846 406.321 292.296 406.544 287.466 406.544C284.556 406.544 283.741 403.628 284.963 403.327C290.521 402.102 295.061 401.976 299.862 399.002C300.359 398.671 300.935 398.48 301.531 398.448Z" fill="#263238"/>
<path d="M315.46 139.449C314.49 144.658 313.927 151.113 317.565 154.592C317.565 154.592 315.479 159.88 305.818 159.88C296.991 159.88 301.414 154.592 301.414 154.592C307.234 153.202 306.905 146.019 305.896 141.956L315.46 139.449Z" fill="#FFC3BD"/>
<path d="M298.64 155.321C298.834 154.029 301.104 152.522 303.684 151.958C306.264 151.394 316.178 150.141 319.204 151.394C322.231 152.648 318.68 156.361 318.68 156.361L298.64 155.321Z" fill="#7771FF"/>
<path opacity="0.4" d="M298.64 155.321C298.834 154.029 301.104 152.522 303.684 151.958C306.264 151.394 316.178 150.141 319.204 151.394C322.231 152.648 318.68 156.361 318.68 156.361L298.64 155.321Z" fill="white"/>
<path opacity="0.2" d="M300.774 382.789L301.143 391.284H308.253L307.884 382.789H300.774Z" fill="black"/>
<path opacity="0.2" d="M347.693 382.789H340.583L342.426 391.284H349.536L347.693 382.789Z" fill="black"/>
<path d="M332.289 161.008L323.724 166.742C323.724 166.742 336.024 188.661 334.996 192.17C333.589 196.952 331.63 207.401 328.962 212.708C329.311 213.855 331.086 216.47 332.076 216.917C338.866 211.746 345.724 195.533 345.472 190.994C344.88 180.7 332.289 161.008 332.289 161.008Z" fill="#FFC3BD"/>
<path d="M328.962 212.728L322.172 212.203L325.732 219.697C325.732 219.697 331.659 219.959 332.648 215.42L328.962 212.728Z" fill="#B55B52"/>
<path d="M362.524 249.275L361.952 250.354L358.111 257.634L221.748 185.385L226.152 177.026L362.524 249.275Z" fill="#7771FF"/>
<path d="M371.342 232.586L368.529 237.912L366.938 240.925L230.565 168.677L234.969 160.317L371.342 232.586Z" fill="#7771FF"/>
<path d="M230.611 168.652L226.197 177.001L362.514 249.356L366.927 241.007L230.611 168.652Z" fill="#7771FF"/>
<path opacity="0.2" d="M230.611 168.652L226.197 177.001L362.514 249.356L366.927 241.007L230.611 168.652Z" fill="black"/>
<path d="M215.87 161.425L211.902 168.949L221.748 185.385L234.969 160.327L215.87 161.425Z" fill="#7771FF"/>
<path opacity="0.8" d="M215.87 161.425L211.902 168.949L221.748 185.385L234.969 160.327L215.87 161.425Z" fill="white"/>
<path d="M207.683 161.902L211.903 168.949L215.87 161.425L207.683 161.902Z" fill="#7771FF"/>
<path d="M316.711 215.614L320.261 222.244L325.761 219.697L322.201 212.203L316.711 215.614Z" fill="#B55B52"/>
<path d="M330.253 156.206C336.975 157.178 344.676 180.506 344.676 180.506L330.553 188.496C330.553 188.496 324.336 177.434 321.28 169.172C318.06 160.531 323.045 155.156 330.253 156.206Z" fill="#263238"/>
<path opacity="0.2" d="M326.343 164.205C323.288 161.406 325.16 173.391 326.615 181.06C327.362 182.557 328.07 183.918 328.671 185.055C332.076 179.028 330.553 168.064 326.343 164.205Z" fill="black"/>
<path d="M290.443 156.575C290.443 156.575 282.053 178.076 290.017 218.122H328.07C328.332 212.29 324.665 183.752 330.291 156.206C326.088 155.393 321.837 154.854 317.565 154.592C312.186 154.281 306.793 154.281 301.414 154.592C297.711 154.963 294.043 155.626 290.443 156.575Z" fill="#263238"/>
<path d="M296.293 166.567L286.709 162.767C286.709 162.767 275.67 185.346 272.159 186.484C267.435 188.039 257.735 192.316 251.857 193.152C251.12 194.124 249.975 197.04 250.159 198.109C258.259 200.762 275.496 197.244 279.065 194.464C287.252 188.126 296.293 166.567 296.293 166.567Z" fill="#FFC3BD"/>
<path opacity="0.2" d="M297.369 164.001C295.788 160.347 292.762 158.821 289.609 159.355C288.387 163.836 286.321 173.682 286.699 188.515L288.959 189.604C288.959 189.604 300.076 170.251 297.369 164.001Z" fill="black"/>
<path d="M298.883 161.445C301.269 167.821 289.183 186.581 289.183 186.581L274.962 178.805C277.099 172.97 279.853 167.382 283.178 162.135C288.174 154.66 296.254 154.456 298.883 161.445Z" fill="#263238"/>
<path d="M252.206 193.132L243.748 194.93L248.035 202.774C250.399 201.596 252.547 200.025 254.388 198.128L252.206 193.132Z" fill="#FFC3BD"/>
<path d="M239.751 196.709L243.127 201.394L248.035 202.813L243.748 194.969L239.751 196.709Z" fill="#FFC3BD"/>
<path d="M299.338 131.954C299.338 132.528 298.979 132.926 298.601 132.926C298.223 132.926 297.951 132.421 297.99 131.848C298.029 131.274 298.349 130.876 298.727 130.876C299.106 130.876 299.377 131.381 299.338 131.954Z" fill="#263238"/>
<path d="M299.843 132.003C299.06 133.716 298.045 135.312 296.826 136.746C297.201 137.05 297.637 137.267 298.105 137.383C298.573 137.499 299.06 137.511 299.532 137.417L299.843 132.003Z" fill="#ED847E"/>
<path d="M298.611 129.972C298.56 129.961 298.51 129.941 298.466 129.913C298.428 129.89 298.395 129.859 298.37 129.822C298.345 129.785 298.327 129.744 298.318 129.701C298.309 129.657 298.309 129.612 298.317 129.568C298.326 129.525 298.344 129.483 298.369 129.447C298.65 128.991 299.034 128.61 299.491 128.333C299.948 128.055 300.465 127.891 300.997 127.853C301.086 127.857 301.17 127.895 301.232 127.957C301.295 128.02 301.332 128.104 301.337 128.193C301.337 128.283 301.301 128.37 301.237 128.433C301.174 128.497 301.087 128.533 300.997 128.533C300.584 128.572 300.185 128.707 299.833 128.928C299.481 129.149 299.185 129.45 298.97 129.806C298.935 129.868 298.881 129.917 298.817 129.947C298.753 129.976 298.681 129.985 298.611 129.972Z" fill="#263238"/>
<path d="M318.622 131.459C317.788 138.477 317.652 142.617 313.898 146.039C308.243 151.171 299.756 147.448 298.475 140.314C297.331 133.898 298.892 123.508 305.934 121.097C307.484 120.56 309.145 120.428 310.759 120.715C312.374 121.002 313.889 121.697 315.16 122.735C316.431 123.773 317.416 125.119 318.022 126.646C318.628 128.173 318.834 129.829 318.622 131.459Z" fill="#FFC3BD"/>
<path d="M304.509 132.829C302.055 133.315 298.136 127.853 301.337 123.216C299.717 122.409 294.43 125.598 292.442 122.623C290.453 119.649 295.973 118.065 294.915 115.547C298.66 116.315 292.49 121 296.05 120.543C299.61 120.086 303.713 113.496 307.69 116.198C314.723 120.932 324.306 113.039 320.397 122.925C325.189 121.953 328.468 127.629 323.899 131.566C314.791 139.39 320.397 140.421 314.626 140.819C311.735 141.033 305.013 137.582 304.509 132.829Z" fill="#263238"/>
<path d="M308.146 134.666C307.81 135.368 307.338 135.995 306.756 136.511C306.175 137.027 305.496 137.421 304.761 137.67C302.821 138.34 301.705 136.601 302.161 134.686C302.569 132.956 304.101 130.526 306.109 130.701C306.55 130.744 306.973 130.897 307.339 131.146C307.705 131.395 308.003 131.733 308.206 132.127C308.409 132.522 308.509 132.961 308.499 133.404C308.488 133.848 308.367 134.282 308.146 134.666Z" fill="#FFC3BD"/>
<path d="M303.5 218.122C303.5 218.122 311.57 272.554 315.993 292.966C320.843 315.322 339.108 389.671 339.108 389.671H352.126C352.126 389.671 340.088 317.101 337.314 294.988C334.316 270.999 328.031 218.151 328.031 218.151L303.5 218.122Z" fill="#7771FF"/>
<path opacity="0.2" d="M303.5 218.122C303.5 218.122 311.57 272.554 315.993 292.966C320.843 315.322 339.108 389.671 339.108 389.671H352.126C352.126 389.671 340.088 317.101 337.314 294.988C334.316 270.999 328.031 218.151 328.031 218.151L303.5 218.122Z" fill="white"/>
<path opacity="0.2" d="M313.083 237.154C312.482 236.299 311.939 236.007 311.434 236.182H311.328C311.213 236.232 311.105 236.298 311.008 236.376C310.904 236.46 310.81 236.555 310.726 236.658L310.571 236.853L310.367 237.173C310.199 237.456 310.053 237.752 309.931 238.058C309.853 238.243 309.776 238.437 309.708 238.631C309.64 238.826 309.533 239.127 309.456 239.399C309.378 239.671 309.232 240.138 309.126 240.537C309.126 240.643 309.077 240.741 309.048 240.848C309.019 240.955 308.941 241.295 308.893 241.518C308.844 241.742 308.806 241.907 308.767 242.101C308.68 242.481 308.602 242.879 308.524 243.287C308.447 243.696 308.359 244.172 308.282 244.629C308.282 244.784 308.233 244.94 308.204 245.105C308.107 245.688 308.02 246.281 307.933 246.893C310.086 260.443 312.647 275.976 314.723 286.813C314.82 286.464 314.926 286.094 315.014 285.696C315.437 283.888 315.761 282.057 315.984 280.214C317.817 266.246 316.973 242.724 313.083 237.154Z" fill="black"/>
<path d="M290.017 218.122C290.017 218.122 289.047 271.368 289.813 293.093C290.618 315.682 298.494 389.641 298.494 389.641H310.532C310.532 389.641 310.969 316.994 311.502 294.813C312.084 270.63 314.994 218.122 314.994 218.122H290.017Z" fill="#7771FF"/>
<path opacity="0.2" d="M290.017 218.122C290.017 218.122 289.047 271.368 289.813 293.093C290.618 315.682 298.494 389.641 298.494 389.641H310.532C310.532 389.641 310.969 316.994 311.502 294.813C312.084 270.63 314.994 218.122 314.994 218.122H290.017Z" fill="white"/>
<path d="M311.327 385.948C311.376 385.948 311.327 389.884 311.327 389.884H297.447L296.865 385.462L311.327 385.948Z" fill="#263238"/>
<path d="M352.126 386.239C352.184 386.239 352.776 389.884 352.776 389.884H338.468L337.207 385.705L352.126 386.239Z" fill="#263238"/>
<path d="M341.301 399.692C340.817 399.731 340.335 399.604 339.933 399.332C339.802 399.226 339.702 399.088 339.64 398.931C339.579 398.775 339.56 398.605 339.584 398.438C339.585 398.341 339.611 398.246 339.661 398.162C339.71 398.078 339.781 398.009 339.865 397.962C340.651 397.563 342.95 398.934 343.212 399.128C343.238 399.148 343.259 399.175 343.271 399.206C343.283 399.237 343.286 399.27 343.279 399.303C343.274 399.336 343.26 399.366 343.237 399.39C343.215 399.415 343.186 399.432 343.153 399.439C342.547 399.591 341.926 399.676 341.301 399.692ZM340.243 398.224C340.17 398.208 340.094 398.208 340.02 398.224C339.986 398.244 339.959 398.272 339.94 398.306C339.921 398.341 339.912 398.379 339.914 398.419C339.899 398.532 339.912 398.647 339.953 398.754C339.993 398.861 340.06 398.956 340.146 399.031C340.938 399.4 341.841 399.448 342.668 399.167C341.928 398.699 341.105 398.379 340.243 398.224Z" fill="#7771FF"/>
<path d="M343.114 399.449C343.089 399.457 343.062 399.457 343.037 399.449C342.3 399.05 340.883 397.505 341.029 396.698C341.054 396.575 341.12 396.464 341.218 396.384C341.315 396.304 341.437 396.26 341.562 396.261C341.69 396.241 341.821 396.251 341.945 396.288C342.069 396.325 342.184 396.388 342.28 396.475C343.105 397.145 343.25 399.206 343.25 399.293C343.25 399.323 343.242 399.353 343.229 399.38C343.215 399.407 343.196 399.43 343.173 399.449C343.153 399.452 343.134 399.452 343.114 399.449ZM341.679 396.533H341.65C341.427 396.533 341.407 396.659 341.398 396.708C341.31 397.174 342.212 398.351 342.95 398.905C342.899 398.094 342.605 397.318 342.106 396.679C342.044 396.625 341.971 396.586 341.892 396.564C341.813 396.542 341.73 396.538 341.65 396.552L341.679 396.533Z" fill="#7771FF"/>
<path d="M298.572 399.692C297.963 399.749 297.354 399.594 296.845 399.254C296.734 399.152 296.647 399.025 296.593 398.883C296.539 398.741 296.519 398.589 296.535 398.438C296.535 398.346 296.561 398.255 296.608 398.176C296.656 398.098 296.725 398.033 296.806 397.991C297.67 397.505 300.531 398.963 300.851 399.128C300.884 399.143 300.91 399.168 300.926 399.2C300.942 399.232 300.946 399.268 300.939 399.303C300.935 399.338 300.919 399.37 300.894 399.395C300.87 399.419 300.837 399.435 300.803 399.439C300.069 399.596 299.322 399.681 298.572 399.692ZM297.282 398.224C297.175 398.22 297.069 398.24 296.971 398.282C296.939 398.301 296.912 398.328 296.893 398.36C296.875 398.393 296.865 398.43 296.865 398.467C296.851 398.566 296.862 398.667 296.898 398.761C296.933 398.854 296.992 398.937 297.068 399.002C297.505 399.391 298.679 399.459 300.25 399.196C299.322 398.708 298.319 398.379 297.282 398.224Z" fill="#7771FF"/>
<path d="M300.774 399.449H300.706C299.843 399.06 298.145 397.505 298.281 396.717C298.281 396.533 298.446 396.29 298.902 396.251C299.074 396.225 299.25 396.237 299.418 396.286C299.585 396.334 299.74 396.419 299.872 396.533C300.774 397.281 300.958 399.196 300.968 399.284C300.972 399.312 300.968 399.341 300.956 399.367C300.944 399.393 300.924 399.414 300.9 399.429C300.862 399.452 300.817 399.459 300.774 399.449ZM299.038 396.533H298.97C298.669 396.533 298.65 396.679 298.64 396.727C298.562 397.203 299.717 398.419 300.58 398.943C300.496 398.127 300.157 397.358 299.61 396.747C299.445 396.622 299.244 396.554 299.038 396.552V396.533Z" fill="#7771FF"/>
</svg>
