<svg width="1524" height="268" viewBox="0 0 1524 268" fill="none" xmlns="http://www.w3.org/2000/svg">
<path d="M228.29 235.277H927.059H1523.33C1523.33 235.277 1317.25 59.2645 1288.23 45.4304C1259.2 31.5962 1073.44 137.029 1057.65 128.41C1041.86 119.791 937.483 9.85383 903.927 5.54463C870.37 1.23543 760.137 81.0033 736.45 86.7495C712.763 92.4957 653.555 150.649 635.789 159.267C618.024 167.886 474.724 212.095 451.037 217.841C427.35 223.587 319.693 210.658 303.901 217.841C288.11 225.023 228.29 235.277 228.29 235.277Z" fill="#CDC9FF"/>
<path d="M0.616699 258.564H872.279H899.255C899.255 258.564 961.17 277.88 926.233 258.564C896.649 242.207 796.96 239.692 763.409 227.663C732.196 216.473 681.769 191.655 649.951 181.335C610.095 168.408 588.93 141.903 572.224 135.74C555.519 129.577 478.275 59.7362 474.229 55.9574C474.229 55.9574 399.537 8.96934 380.104 1.67763C360.67 -5.61408 326.266 12.4884 288.923 24.7526C243.6 39.6373 204.539 58.1839 165.596 80.2126C118.488 106.86 87.089 106.295 51.2856 140.499C12.2677 177.773 0.616699 258.564 0.616699 258.564Z" fill="#CDC9FF"/>
</svg>
