<svg width="1315" height="314" viewBox="0 0 1315 314" fill="none" xmlns="http://www.w3.org/2000/svg">
<path d="M482.181 247.691C463.35 256.25 382.869 313.878 382.869 313.878H1254.19V289.912C1254.19 289.912 1319.27 151.828 1293.59 151.828C1267.91 151.828 1223.4 121.015 1202.86 98.761C1182.32 76.5071 1066.65 17.262 1023.12 9.74585C979.589 2.22967 863.92 76.5072 846.801 90.2018C829.683 103.896 762.921 119.303 742.379 141.557C721.837 163.811 608.856 198.047 581.467 208.318L482.181 247.691Z" fill="#B3ADFF"/>
<path d="M724.063 275.956L103.182 304.664H0C0 304.664 31.9372 248.875 45.4492 241.065C58.9611 233.255 103.182 156.266 130.206 149.571C157.23 142.877 235.844 121.677 250.585 113.866C265.325 106.056 314.886 83.2923 345.168 81.5088C375.451 79.7253 416.413 113.866 432.382 121.677C448.35 129.487 575.456 191.604 595.109 200.531C614.763 209.457 724.063 275.956 724.063 275.956Z" fill="url(#paint0_linear_186_115)"/>
<defs>
<linearGradient id="paint0_linear_186_115" x1="318.744" y1="21.7811" x2="339.026" y2="171.567" gradientUnits="userSpaceOnUse">
<stop stop-color="#BDB8FF"/>
<stop offset="1" stop-color="#AEA8FF"/>
</linearGradient>
</defs>
</svg>
